<?xml version="1.0" encoding="UTF-8"?>
<!DOCTYPE svg PUBLIC "-//W3C//DTD SVG 1.1//EN" "http://www.w3.org/Graphics/SVG/1.1/DTD/svg11.dtd">
<svg xmlns="http://www.w3.org/2000/svg" version="1.1" width="180px" height="180px" style="shape-rendering:geometricPrecision; text-rendering:geometricPrecision; image-rendering:optimizeQuality; fill-rule:evenodd; clip-rule:evenodd" xmlns:xlink="http://www.w3.org/1999/xlink">
<g><path style="opacity:0.978" fill="#000000" d="M 73.5,-0.5 C 83.8333,-0.5 94.1667,-0.5 104.5,-0.5C 144.709,8.70923 169.709,33.3759 179.5,73.5C 179.5,84.1667 179.5,94.8333 179.5,105.5C 169.709,145.624 144.709,170.291 104.5,179.5C 94.1667,179.5 83.8333,179.5 73.5,179.5C 34.5941,169.925 9.92746,145.925 -0.5,107.5C -0.5,103.833 -0.5,100.167 -0.5,96.5C 39.1667,96.5 78.8333,96.5 118.5,96.5C 118.5,91.8333 118.5,87.1667 118.5,82.5C 78.8333,82.5 39.1667,82.5 -0.5,82.5C -0.5,78.8333 -0.5,75.1667 -0.5,71.5C 9.92746,33.0749 34.5941,9.07486 73.5,-0.5 Z"/></g>
</svg>
