<svg width="41" height="37" viewBox="0 0 41 37" fill="none" xmlns="http://www.w3.org/2000/svg">
<path id="Vector" d="M34.7091 3.06926C32.0506 1.62478 29.2453 0.593826 26.3632 0.00210731C26.337 -0.00309908 26.3102 0.00139751 26.2864 0.014979C26.2625 0.0285604 26.2428 0.0505597 26.2299 0.0779517C25.8686 0.836396 25.4689 1.82844 25.1895 2.60509C22.0828 2.0469 18.9227 2.0469 15.816 2.60509C15.5044 1.73992 15.152 0.896201 14.7603 0.0779517C14.7471 0.0508597 14.7274 0.0291139 14.7036 0.0155761C14.6798 0.00203824 14.6531 -0.00265717 14.627 0.00210731C11.7442 0.59066 8.93834 1.62215 6.28105 3.06926C6.25832 3.07953 6.2393 3.09883 6.22724 3.12387C0.912674 12.5255 -0.545374 21.6967 0.169556 30.7525C0.172119 30.795 0.195181 30.8374 0.223368 30.8647C3.31813 33.5788 6.77969 35.651 10.4604 36.993C10.4864 37.0027 10.5144 37.0023 10.5402 36.992C10.566 36.9816 10.5883 36.9618 10.6039 36.9353C11.3932 35.6611 12.0953 34.3172 12.7 32.9034C12.7127 32.8743 12.717 32.8412 12.7124 32.8089C12.7077 32.7766 12.6944 32.747 12.6744 32.7244C12.6612 32.7096 12.6455 32.6983 12.6283 32.6911C11.5243 32.1887 10.4551 31.5852 9.43033 30.886C9.40171 30.8668 9.38043 30.8353 9.37089 30.798C9.36134 30.7607 9.36428 30.7205 9.37908 30.6857C9.3878 30.6632 9.40099 30.6434 9.41752 30.6281C9.63277 30.437 9.84802 30.2367 10.053 30.0365C10.0711 30.0193 10.0929 30.0082 10.1159 30.0045C10.1389 30.0007 10.1623 30.0045 10.1837 30.0153C16.8948 33.6437 24.1594 33.6437 30.7885 30.0153C30.8107 30.0039 30.835 29.9999 30.8589 30.0037C30.8829 30.0074 30.9055 30.0187 30.9244 30.0365C31.1294 30.2367 31.3446 30.437 31.5598 30.6281C31.5773 30.6432 31.5913 30.6632 31.6006 30.6862C31.61 30.7093 31.6143 30.7348 31.6133 30.7603C31.6123 30.7858 31.6059 30.8107 31.5948 30.8326C31.5837 30.8546 31.5682 30.8729 31.5496 30.886C30.5272 31.5916 29.4566 32.1944 28.3491 32.688C28.3314 32.6956 28.3154 32.7077 28.3021 32.7234C28.2888 32.7391 28.2786 32.7581 28.2722 32.779C28.2663 32.7993 28.2639 32.8208 28.2652 32.8422C28.2665 32.8636 28.2715 32.8844 28.2799 32.9034C28.8949 34.3141 29.5996 35.6611 30.3734 36.9353C30.3891 36.9618 30.4114 36.9816 30.4372 36.992C30.463 37.0023 30.4909 37.0027 30.5169 36.993C34.2038 35.6552 37.671 33.5827 40.7694 30.8647C40.7849 30.852 40.7978 30.8353 40.8071 30.8159C40.8164 30.7965 40.8219 30.7748 40.8232 30.7525C41.6791 20.2829 39.3908 11.1876 34.7604 3.1269C34.7557 3.11359 34.7487 3.10158 34.7399 3.09165C34.7311 3.08172 34.7206 3.07409 34.7091 3.06926ZM13.702 25.2371C11.6802 25.2371 10.0171 23.0406 10.0171 20.3466C10.0171 17.6496 11.6494 15.4531 13.702 15.4531C15.7699 15.4531 17.4176 17.6678 17.3868 20.3466C17.3868 23.0406 15.7545 25.2371 13.702 25.2371ZM27.3241 25.2371C25.3049 25.2371 23.6392 23.0406 23.6392 20.3466C23.6392 17.6496 25.2715 15.4531 27.3241 15.4531C29.392 15.4531 31.0422 17.6678 31.0089 20.3466C31.0089 23.0406 29.392 25.2371 27.3241 25.2371Z" fill="white"/>
</svg>
