<?xml version="1.0" encoding="UTF-8"?>
<!DOCTYPE svg PUBLIC "-//W3C//DTD SVG 1.1//EN" "http://www.w3.org/Graphics/SVG/1.1/DTD/svg11.dtd">
<svg xmlns="http://www.w3.org/2000/svg" version="1.1" width="180px" height="180px" style="shape-rendering:geometricPrecision; text-rendering:geometricPrecision; image-rendering:optimizeQuality; fill-rule:evenodd; clip-rule:evenodd" xmlns:xlink="http://www.w3.org/1999/xlink">
<g><path style="opacity:1" fill="#121212" d="M -0.5,-0.5 C 59.5,-0.5 119.5,-0.5 179.5,-0.5C 179.5,59.5 179.5,119.5 179.5,179.5C 119.5,179.5 59.5,179.5 -0.5,179.5C -0.5,119.5 -0.5,59.5 -0.5,-0.5 Z"/></g>
<g><path style="opacity:1" fill="#f7f7f7" d="M 114.5,44.5 C 131.042,44.2975 136.876,51.9642 132,67.5C 125.402,74.0426 117.902,75.2092 109.5,71C 100.249,60.0788 101.916,51.2454 114.5,44.5 Z"/></g>
<g><path style="opacity:1" fill="#fcfcfc" d="M 61.5,59.5 C 61.5,79.5 61.5,99.5 61.5,119.5C 80.326,120.497 99.326,120.83 118.5,120.5C 118.5,125.167 118.5,129.833 118.5,134.5C 93.8333,134.5 69.1667,134.5 44.5,134.5C 44.5,109.5 44.5,84.5 44.5,59.5C 50.1667,59.5 55.8333,59.5 61.5,59.5 Z"/></g>
<g><path style="opacity:1" fill="#292929" d="M 61.5,59.5 C 62.4971,78.9929 62.8304,98.6596 62.5,118.5C 81.3408,118.17 100.007,118.503 118.5,119.5C 99.5,119.5 80.5,119.5 61.5,119.5C 61.5,99.5 61.5,79.5 61.5,59.5 Z"/></g>
<g><path style="opacity:1" fill="#a4a4a4" d="M 61.5,119.5 C 80.5,119.5 99.5,119.5 118.5,119.5C 119.833,124.5 119.833,129.5 118.5,134.5C 118.5,129.833 118.5,125.167 118.5,120.5C 99.326,120.83 80.326,120.497 61.5,119.5 Z"/></g>
</svg>
