<svg width="636" height="598" viewBox="0 0 636 598" fill="none" xmlns="http://www.w3.org/2000/svg">
<path d="M138.306 145.646C137.614 145.646 136.922 145.321 136.482 144.724C135.78 143.78 135.916 142.449 136.807 141.662L198.141 87.7098L210.166 80.1821C211.194 79.553 212.504 79.8151 213.207 80.7692C213.909 81.7233 213.752 83.0653 212.85 83.8411L145.761 141.39L139.502 145.3C139.135 145.531 138.715 145.646 138.306 145.646Z" fill="#B7B7D9"/>
<path d="M211.374 84.3864C210.43 84.3864 209.57 83.7992 209.235 82.8871C208.857 81.8282 209.298 80.6539 210.273 80.1192L287.417 37.6575C287.626 37.5422 287.847 37.4688 288.077 37.4164L299.914 35.0679C300.973 34.8058 302.116 35.4663 302.493 36.5357C302.871 37.5946 302.42 38.7793 301.424 39.3036L220.579 82.5306C220.38 82.6459 220.17 82.7194 219.939 82.7613L211.803 84.3444C211.667 84.3759 211.52 84.3864 211.374 84.3864Z" fill="#B7B7D9"/>
<path d="M14.1841 377.969C14.0688 377.969 13.9535 377.959 13.8381 377.938C12.7477 377.781 11.9404 376.858 11.909 375.757L11.6573 366.017C11.6468 365.724 11.6993 365.441 11.7936 365.178L41.4749 283.589C41.8524 282.562 42.8483 281.933 43.9806 282.121C45.0606 282.3 45.8573 283.212 45.8888 284.302L46.0251 289.272C46.0356 289.544 45.9936 289.817 45.8993 290.069L16.3334 376.428C16.0188 377.361 15.1487 377.969 14.1841 377.969Z" fill="#B7B7D9"/>
<path d="M144.284 141.935C143.424 141.935 142.627 141.442 142.239 140.656C141.788 139.723 142.019 138.612 142.805 137.93L209.895 80.3813C210.188 80.1297 210.555 79.9513 210.943 79.8779L219.079 78.2948C220.033 78.0746 221.123 78.6198 221.564 79.5634C222.015 80.507 221.753 81.6287 220.956 82.2893L149.882 140.603C149.589 140.834 149.243 141.002 148.876 141.075L144.724 141.893C144.577 141.925 144.431 141.935 144.284 141.935Z" fill="#B7B7D9"/>
<path d="M43.7491 291.61C43.5604 291.61 43.3716 291.589 43.1829 291.536C42.1974 291.285 41.5054 290.415 41.474 289.398L41.3377 284.428C41.3272 283.977 41.4425 283.547 41.6837 283.159L87.8778 208.857C88.5383 207.808 89.9223 207.494 90.9812 208.112C92.0401 208.752 92.3966 210.125 91.778 211.205L45.7202 290.477C45.3008 291.19 44.5458 291.61 43.7491 291.61Z" fill="#B7B7D9"/>
<path d="M43.6135 286.64C43.3199 286.64 43.0159 286.577 42.7223 286.462C41.6948 286.022 41.1391 284.9 41.4117 283.81L43.3304 276.187C43.3933 275.936 43.4981 275.705 43.6344 275.485L87.9099 208.804C88.6018 207.756 89.9963 207.462 91.0342 208.154C92.0827 208.825 92.3972 210.209 91.7367 211.268L45.5426 285.571C45.1232 286.252 44.3788 286.64 43.6135 286.64Z" fill="#B7B7D9"/>
<path d="M45.5309 279.018C45.1745 279.018 44.818 278.934 44.4825 278.767C43.4551 278.221 42.9937 276.995 43.4131 275.915L47.3133 265.923L87.9507 208.742C88.6951 207.735 90.0685 207.483 91.096 208.186C92.1234 208.888 92.3856 210.283 91.7041 211.321L47.4286 278.001C46.9882 278.651 46.2648 279.018 45.5309 279.018Z" fill="#B7B7D9"/>
<path d="M49.432 269.026C49.0336 269.026 48.6351 268.921 48.2787 268.712C47.2617 268.104 46.8738 266.825 47.3875 265.766L53.1539 253.793L88.004 208.668C88.7693 207.693 90.1846 207.504 91.1598 208.238C92.1557 208.972 92.3759 210.377 91.663 211.383L51.2877 268.072C50.8473 268.691 50.1449 269.026 49.432 269.026Z" fill="#B7B7D9"/>
<path d="M55.1971 257.053C54.7672 257.053 54.3373 256.927 53.9494 256.686C52.9639 256.036 52.6283 254.736 53.1946 253.688L60.5441 240.184L88.097 208.563C88.8938 207.63 90.2987 207.525 91.2528 208.301C92.1964 209.087 92.3537 210.482 91.6093 211.457L57.0004 256.173C56.5496 256.749 55.8786 257.053 55.1971 257.053Z" fill="#B7B7D9"/>
<path d="M62.5486 243.549C62.0873 243.549 61.6156 243.403 61.2066 243.109C60.263 242.417 59.9904 241.117 60.5985 240.111L69.2691 225.611C69.3844 225.411 69.5311 225.233 69.699 225.086L88.2877 208.374C89.1684 207.577 90.5418 207.588 91.4016 208.448C92.2613 209.287 92.3137 210.65 91.5169 211.562L64.2576 242.774C63.8172 243.287 63.1882 243.549 62.5486 243.549Z" fill="#B7B7D9"/>
<path d="M71.2198 229.049C70.6955 229.049 70.1713 228.871 69.7415 228.504C68.8713 227.76 68.693 226.491 69.3116 225.537L79.0096 210.576C79.3451 210.062 79.8694 209.706 80.4775 209.58L89.3682 207.829C90.3642 207.63 91.3812 208.133 91.8425 209.045C92.3038 209.957 92.0941 211.069 91.3288 211.75L72.74 228.462C72.3101 228.85 71.7649 229.049 71.2198 229.049Z" fill="#B7B7D9"/>
<path d="M80.9176 214.088C80.1627 214.088 79.4392 213.711 79.0094 213.061C78.5061 212.285 78.5166 211.279 79.0514 210.513L89.3575 195.72C89.9341 194.85 91.0244 194.535 92.0205 194.892C92.9956 195.259 93.5931 196.233 93.4883 197.261L92.0729 210.303C91.9576 211.299 91.2237 212.107 90.2487 212.295L81.3579 214.046C81.2112 214.078 81.0644 214.088 80.9176 214.088ZM88.005 205.627L86.0025 208.49L87.7324 208.154L88.005 205.627Z" fill="#B7B7D9"/>
<path d="M89.8083 212.338C89.6092 212.338 89.4205 212.317 89.2212 212.264C88.1413 211.971 87.4284 210.933 87.5437 209.821L88.9591 196.779C89.0115 196.37 89.1582 195.992 89.3994 195.657L99.9257 181.514C100.618 180.601 101.907 180.36 102.893 180.905C103.889 181.493 104.298 182.73 103.836 183.789L91.8947 210.975C91.5172 211.824 90.6891 212.338 89.8083 212.338Z" fill="#B7B7D9"/>
<path d="M89.809 212.338C89.4629 212.338 89.117 212.264 88.8025 212.096C87.7121 211.562 87.2403 210.262 87.7226 209.15L99.6643 181.964C99.7481 181.776 99.853 181.608 99.9788 181.451L110.348 168.565C111.092 167.643 112.413 167.444 113.388 168.104C114.374 168.765 114.678 170.065 114.112 171.103L91.801 211.174C91.3816 211.918 90.6058 212.338 89.809 212.338Z" fill="#B7B7D9"/>
<path d="M89.8066 212.338C89.4082 212.338 89.0098 212.233 88.6534 212.023C87.584 211.394 87.2169 210.031 87.8146 208.951L110.125 168.88C110.209 168.744 110.304 168.618 110.408 168.492L120.18 157.337C120.977 156.445 122.319 156.309 123.241 157.012C124.195 157.714 124.447 159.035 123.818 160.042L91.7358 211.268C91.3059 211.96 90.5615 212.338 89.8066 212.338Z" fill="#B7B7D9"/>
<path d="M89.8068 212.338C89.3769 212.338 88.947 212.222 88.5591 211.971C87.5212 211.289 87.2172 209.905 87.8777 208.857L119.96 157.63C120.054 157.483 120.149 157.357 120.274 157.242L129.123 148.268C129.941 147.418 131.262 147.356 132.185 148.1C133.086 148.855 133.275 150.165 132.614 151.14L91.6835 211.341C91.2431 211.992 90.5302 212.338 89.8068 212.338Z" fill="#B7B7D9"/>
<path d="M89.8085 212.338C89.3577 212.338 88.8964 212.201 88.498 211.918C87.4809 211.205 87.2294 209.811 87.9318 208.783L128.863 148.582C128.968 148.415 129.104 148.268 129.261 148.132L136.831 141.642C137.701 140.887 139.012 140.918 139.85 141.705C140.7 142.481 140.825 143.781 140.144 144.714L91.6433 211.405C91.2029 212.013 90.511 212.338 89.8085 212.338Z" fill="#B7B7D9"/>
<path d="M89.8065 212.337C89.3346 212.337 88.8523 212.191 88.4435 211.887C87.4475 211.132 87.2379 209.727 87.9717 208.72L136.472 142.03C136.64 141.799 136.86 141.589 137.112 141.442L143.088 137.731C144.011 137.144 145.248 137.322 145.971 138.14C146.705 138.958 146.758 140.184 146.087 141.054L91.6098 211.457C91.159 212.034 90.488 212.337 89.8065 212.337Z" fill="#B7B7D9"/>
<path d="M89.8087 212.338C89.3054 212.338 88.8128 212.17 88.3933 211.845C87.4183 211.069 87.2504 209.654 88.0054 208.668L142.482 138.265C142.828 137.836 143.31 137.532 143.845 137.427L147.997 136.609C148.941 136.42 149.905 136.85 150.387 137.678C150.88 138.496 150.807 139.545 150.188 140.289L91.5596 211.509C91.1192 212.054 90.4693 212.338 89.8087 212.338Z" fill="#B7B7D9"/>
<path d="M41.8309 654.903C41.2543 654.903 40.688 654.683 40.2478 654.264L30.9376 645.268C30.6441 644.985 30.4343 644.629 30.3296 644.241L6.26794 556.927C5.99535 555.931 6.41473 554.893 7.29541 554.369C8.17608 553.834 9.30843 553.981 10.0318 554.684L17.9999 562.337C18.2935 562.61 18.5032 562.956 18.6185 563.344L44.0221 651.999C44.3052 652.995 43.8858 654.044 43.0051 654.578C42.6382 654.799 42.2293 654.903 41.8309 654.903ZM34.5443 642.427L37.3017 645.09L14.4143 565.189L12.8521 563.689L34.5443 642.427Z" fill="#B7B7D9"/>
<path d="M45.9524 293.707C45.3758 293.707 44.8095 293.486 44.3798 293.078L42.178 290.981C41.4232 290.257 41.2554 289.104 41.7796 288.192L87.8375 208.92C88.4665 207.85 89.8085 207.462 90.9199 208.081C91.9998 208.689 92.3982 210.052 91.811 211.142L47.9549 292.511C47.6194 293.13 47.0113 293.57 46.3089 293.675C46.1936 293.696 46.0677 293.707 45.9524 293.707Z" fill="#B7B7D9"/>
<path d="M16.428 566.248C15.8514 566.248 15.2851 566.028 14.8554 565.608L6.88726 557.955C6.47832 557.567 6.22675 557.043 6.19529 556.476L0.00951453 465.986C-0.0639196 465.042 0.460322 464.162 1.32006 463.763C2.15876 463.386 3.16534 463.543 3.85728 464.193L10.085 470.211C10.4729 470.589 10.7245 471.102 10.7665 471.647L18.6927 563.774C18.7765 564.717 18.2628 565.619 17.4136 566.028C17.099 566.175 16.7635 566.248 16.428 566.248ZM10.6721 555.292L13.6392 558.143L6.31062 472.895L4.94765 471.574L10.6721 555.292Z" fill="#B7B7D9"/>
<path d="M667.119 52.0316C666.888 52.0316 666.657 52.0002 666.427 51.9267L578.903 23.9964C578.568 23.8915 578.264 23.7028 578.012 23.4617L567.632 13.4596C566.878 12.7257 566.72 11.5724 567.255 10.6603C567.8 9.75867 568.922 9.33922 569.897 9.65378L656.781 36.9657C657.116 37.0706 657.421 37.2487 657.683 37.5002L668.702 48.1211C669.457 48.855 669.614 50.0186 669.069 50.9202C668.649 51.6227 667.905 52.0316 667.119 52.0316ZM580.79 19.8236L658.511 44.6191L654.904 41.1488L577.75 16.888L580.79 19.8236Z" fill="#B7B7D9"/>
<path d="M8.50137 474.122C7.92474 474.122 7.3481 473.901 6.91823 473.482L0.69052 467.464C0.176803 466.961 -0.0748482 466.248 0.0195212 465.535L11.9298 375.401C12.0451 374.541 12.6217 373.828 13.429 373.545C14.2573 373.272 15.1275 373.461 15.767 374.059L20.0656 378.2C20.5689 378.682 20.8204 379.385 20.7471 380.077L10.766 472.087C10.6716 472.958 10.095 473.691 9.27722 473.985C9.02556 474.079 8.76354 474.122 8.50137 474.122ZM4.67458 464.99L6.74 466.982L16.1025 380.695L15.8509 380.454L4.67458 464.99Z" fill="#B7B7D9"/>
<path d="M18.4845 382.111C17.9079 382.111 17.3312 381.891 16.9014 381.471L12.6028 377.33C11.9738 376.722 11.743 375.789 12.0366 374.961L41.6025 288.601C41.8542 287.867 42.4623 287.311 43.2066 287.123C44.0035 286.955 44.7688 287.154 45.3245 287.689L47.5262 289.786C48.1448 290.383 48.386 291.285 48.1238 292.103L20.6548 380.507C20.4242 381.262 19.816 381.838 19.0507 382.038C18.8619 382.09 18.6731 382.111 18.4845 382.111ZM16.807 375.065L17.4046 375.642L25.2469 350.417L16.807 375.065Z" fill="#B7B7D9"/>
<path d="M89.8073 212.338C89.283 212.338 88.7588 212.159 88.329 211.792C87.3854 210.985 87.2596 209.58 88.0564 208.616L146.685 137.395C147.083 136.903 147.681 136.609 148.31 136.567C148.939 136.536 149.568 136.766 150.029 137.217L152.2 139.335C153.059 140.174 153.112 141.558 152.315 142.46L91.5162 211.562C91.0654 212.076 90.4363 212.338 89.8073 212.338Z" fill="#B7B7D9"/>
<path d="M579.595 24.1012C579.511 24.1012 579.427 24.0907 579.333 24.0907L487.721 13.5749C487.228 13.512 486.766 13.2918 486.4 12.9459L477.058 3.92947C476.366 3.25847 476.167 2.20985 476.576 1.32918C476.985 0.459029 477.792 -0.127999 478.882 0.0292836L569.457 9.55957C569.96 9.61196 570.432 9.8322 570.799 10.1886L581.178 20.1907C581.881 20.8617 582.069 21.9101 581.65 22.8012C581.273 23.598 580.465 24.1012 579.595 24.1012ZM489.01 9.1402L573.179 18.7961L568.199 14.0048L484.974 5.25033L489.01 9.1402Z" fill="#B7B7D9"/>
<path d="M150.607 143.235C150.03 143.235 149.453 143.015 149.013 142.585L146.843 140.467C146.381 140.016 146.14 139.387 146.161 138.748C146.193 138.098 146.497 137.49 146.989 137.081L218.063 78.7668C218.965 78.0329 220.254 78.0748 221.093 78.8926L225.392 83.0339C225.863 83.4952 226.115 84.1348 226.083 84.7953C226.041 85.4558 225.717 86.0638 225.192 86.4728L151.99 142.763C151.582 143.078 151.089 143.235 150.607 143.235ZM219.384 83.5686L187.742 109.528L220.328 84.4807L219.384 83.5686Z" fill="#B7B7D9"/>
<path d="M395.806 20.8092C395.219 20.8092 394.652 20.5786 394.233 20.1697L386.296 12.5371C385.657 11.929 385.426 10.9959 385.72 10.1571C386.013 9.3079 386.768 8.72074 387.659 8.63689L478.433 0.0292255C479.01 -0.0966003 479.744 0.196962 480.226 0.658287L489.567 9.67484C490.207 10.2934 490.427 11.2369 490.123 12.0756C489.819 12.9248 489.054 13.5119 488.163 13.5749L395.984 20.7986C395.921 20.8091 395.869 20.8092 395.806 20.8092ZM393.017 12.6943L396.645 16.1858L482.774 9.4337L477.814 4.65283L393.017 12.6943Z" fill="#B7B7D9"/>
<path d="M306.615 45.6046C306.039 45.6046 305.462 45.3844 305.043 44.9651L298.784 38.9366C298.197 38.3809 297.955 37.5526 298.144 36.7663C298.333 35.98 298.93 35.3614 299.696 35.1202L387.209 8.72078C388.027 8.51111 388.855 8.68934 389.442 9.26597L397.379 16.8986C397.976 17.4647 398.207 18.3035 398.008 19.0898C397.809 19.8866 397.2 20.5051 396.414 20.7252L307.224 45.5207C307.024 45.5731 306.815 45.6046 306.615 45.6046ZM304.728 38.3601L307.255 40.7923L391.361 17.4123L387.251 13.4597L304.728 38.3601Z" fill="#B7B7D9"/>
<path d="M223.808 86.9446C223.232 86.9446 222.665 86.7244 222.225 86.305L217.927 82.1637C217.413 81.6604 217.161 80.937 217.256 80.2136C217.36 79.4902 217.801 78.8611 218.44 78.5256L299.285 35.2986C300.145 34.8163 301.225 34.984 301.927 35.6655L308.187 41.6939C308.721 42.2076 308.973 42.9415 308.858 43.6754C308.753 44.3988 308.291 45.0385 307.631 45.3636L224.825 86.7034C224.5 86.8607 224.154 86.9446 223.808 86.9446ZM223.337 81.0628L224.228 81.9121L302.714 42.732L299.967 40.0899L223.337 81.0628Z" fill="#B7B7D9"/>
<path d="M45.9521 293.707C45.2392 293.707 44.5578 293.371 44.1174 292.784C43.6037 292.071 43.5302 291.127 43.9496 290.352L87.8057 208.983C88.3929 207.871 89.7873 207.483 90.8462 208.039C91.9576 208.605 92.3979 209.958 91.8527 211.069L52.1694 291.62C51.8548 292.26 51.2572 292.711 50.5653 292.847L46.3925 293.665C46.2457 293.696 46.099 293.707 45.9521 293.707Z" fill="#B7B7D9"/>
<path d="M89.8074 212.338C89.2622 212.338 88.7065 212.138 88.2767 211.74C87.354 210.901 87.2807 209.486 88.0984 208.563L148.897 139.461C149.516 138.748 150.501 138.486 151.382 138.821C152.252 139.136 152.85 139.964 152.881 140.897L153.028 145.856C153.049 146.454 152.818 147.041 152.399 147.481L91.4534 211.625C91.013 212.096 90.405 212.338 89.8074 212.338Z" fill="#B7B7D9"/>
<path d="M50.123 292.889C49.5778 292.889 49.0221 292.69 48.6027 292.302C47.8479 291.62 47.6382 290.519 48.0785 289.607L87.7618 209.056C88.307 207.944 89.6281 207.504 90.7709 207.997C91.8822 208.521 92.3855 209.842 91.8927 210.974L58.1645 287.804C57.9757 288.223 57.6717 288.58 57.2838 288.821L51.3287 292.543C50.9617 292.773 50.5423 292.889 50.123 292.889Z" fill="#B7B7D9"/>
<path d="M18.4826 382.111C17.8431 382.111 17.2245 381.838 16.7946 381.356C16.26 380.758 16.0712 379.93 16.3124 379.165L43.7814 290.761C44.0225 289.953 44.6936 289.356 45.5113 289.198L49.6841 288.381C50.4285 288.202 51.2463 288.496 51.7914 289.062C52.3261 289.639 52.5254 290.446 52.3261 291.201L28.8621 378.819C28.6315 379.657 27.95 380.297 27.1008 380.465L18.923 382.069C18.7762 382.1 18.6295 382.111 18.4826 382.111ZM42.67 309.664L21.7852 376.869L24.8257 376.271L42.67 309.664Z" fill="#B7B7D9"/>
<path d="M89.8079 212.338C89.2312 212.338 88.644 212.117 88.2038 211.677C87.3231 210.807 87.3126 209.392 88.1618 208.5L149.107 144.357C149.82 143.592 150.953 143.434 151.854 143.927C152.756 144.43 153.207 145.468 152.955 146.475L151.037 154.097C150.932 154.516 150.712 154.883 150.408 155.187L91.3805 211.709C90.9401 212.128 90.374 212.338 89.8079 212.338Z" fill="#B7B7D9"/>
<path d="M150.753 148.194C150.407 148.194 150.061 148.11 149.736 147.953C148.981 147.576 148.509 146.821 148.478 145.982L148.331 141.023C148.31 140.3 148.646 139.597 149.222 139.157L222.424 82.8664C223.095 82.3317 224.007 82.2478 224.783 82.6147C225.559 82.9817 226.052 83.747 226.083 84.6068L226.366 94.3256C226.387 95.091 226.02 95.8144 225.402 96.2443L152.064 147.785C151.676 148.058 151.214 148.194 150.753 148.194ZM221.669 89.1883L159.455 137.028L221.785 93.2352L221.669 89.1883Z" fill="#B7B7D9"/>
<path d="M56.079 289.167C55.6071 289.167 55.1249 289.02 54.7265 288.716C53.8773 288.087 53.5732 286.955 53.9926 285.98L87.7208 209.15C88.2241 208.028 89.5346 207.473 90.6564 207.955C91.7992 208.416 92.3654 209.706 91.9355 210.859L65.7456 281.22C65.6092 281.576 65.3891 281.901 65.0955 282.153L57.5573 288.622C57.1379 288.978 56.6032 289.167 56.079 289.167Z" fill="#B7B7D9"/>
<path d="M8.50128 474.122C7.93517 474.122 7.38984 473.912 6.96008 473.524C6.43584 473.031 6.16322 472.318 6.23666 471.605L16.2178 379.595C16.3331 378.599 17.067 377.791 18.042 377.603L26.2199 375.999C26.9014 375.852 27.6353 376.051 28.1699 376.523C28.6942 376.995 28.9773 377.687 28.9248 378.389L22.6342 469.676C22.5713 470.704 21.8164 471.553 20.8099 471.752L8.94162 474.08C8.79486 474.111 8.64815 474.122 8.50128 474.122ZM20.5583 381.744L11.0909 469.016L18.2203 467.621L24.1859 381.031L20.5583 381.744Z" fill="#B7B7D9"/>
<path d="M89.8081 212.337C89.1895 212.337 88.5606 212.086 88.1202 211.583C87.2919 210.67 87.3443 209.266 88.2355 208.416L147.262 151.895C148.049 151.161 149.213 151.056 150.104 151.654C150.984 152.241 151.341 153.373 150.953 154.369L147.042 164.372C146.906 164.728 146.686 165.032 146.392 165.284L91.276 211.803C90.8461 212.159 90.3324 212.337 89.8081 212.337Z" fill="#B7B7D9"/>
<path d="M16.4278 566.248C15.9351 566.248 15.4528 566.091 15.0649 565.786C14.5406 565.399 14.2156 564.811 14.1632 564.172L6.23705 472.046C6.13216 470.882 6.929 469.834 8.06133 469.613L19.9296 467.286C20.5377 467.15 21.1878 467.307 21.7015 467.674C22.2152 468.051 22.5507 468.617 22.6241 469.246L33.748 560.733C33.8948 561.918 33.098 563.008 31.9342 563.239L16.8682 566.206C16.7214 566.237 16.5747 566.248 16.4278 566.248ZM10.9445 473.681L18.4723 561.247L28.9776 559.181L18.4094 472.224L10.9445 473.681Z" fill="#B7B7D9"/>
<path d="M63.6177 282.698C63.1983 282.698 62.7685 282.583 62.391 282.342C61.4894 281.765 61.1119 280.633 61.4894 279.626L87.6793 209.266C88.0987 208.123 89.3568 207.462 90.5101 207.903C91.6739 208.28 92.324 209.507 91.9989 210.681L74.6682 272.046C74.5633 272.413 74.3641 272.748 74.1021 273.021L65.2428 282.017C64.8024 282.467 64.2154 282.698 63.6177 282.698ZM72.3826 263.407L69.4575 271.249L70.443 270.243L72.3826 263.407Z" fill="#B7B7D9"/>
<path d="M41.8325 654.903C40.8365 654.903 39.9348 654.243 39.6413 653.257L14.2377 564.602C14.07 563.983 14.1538 563.333 14.4893 562.788C14.8248 562.243 15.3699 561.865 15.9885 561.739L31.0546 558.772C32.1764 558.531 33.3193 559.223 33.6652 560.313L61.7738 648.445C61.9625 649.064 61.8891 649.734 61.5641 650.29C61.2286 650.856 60.6834 651.244 60.0438 651.37L42.2729 654.862C42.1261 654.893 41.9794 654.903 41.8325 654.903ZM19.3016 565.723L43.4471 649.997L56.6574 647.397L29.9432 563.627L19.3016 565.723Z" fill="#B7B7D9"/>
<path d="M224.093 96.6635C223.674 96.6635 223.255 96.5483 222.888 96.3176C222.238 95.9086 221.839 95.2167 221.818 94.4513L221.535 84.7323C221.514 83.8517 222.007 83.0339 222.793 82.6355L305.599 41.2956C306.301 40.9496 307.109 40.9601 307.79 41.3795C308.451 41.7779 308.87 42.4909 308.891 43.2667L309.279 57.4101C309.3 58.3327 308.765 59.1714 307.926 59.5489L225.016 96.4643C224.723 96.6007 224.408 96.6635 224.093 96.6635ZM226.127 86.0534L226.264 90.9286L304.687 56.0157L304.435 46.9572L226.127 86.0534Z" fill="#B7B7D9"/>
<path d="M89.8062 212.338C89.1246 212.338 88.4536 212.034 88.0028 211.446C87.2584 210.482 87.4053 209.108 88.3383 208.322L143.455 161.803C144.262 161.111 145.468 161.09 146.317 161.74C147.166 162.4 147.439 163.554 146.977 164.529L141.253 176.481C141.085 176.827 140.823 177.131 140.498 177.362L91.1062 211.929C90.7183 212.201 90.257 212.338 89.8062 212.338ZM138.296 172.109L129.71 179.364L137.405 173.975L138.296 172.109Z" fill="#B7B7D9"/>
<path d="M26.6602 380.507C26.1883 380.507 25.7061 380.36 25.3077 380.056C24.5529 379.5 24.2173 378.546 24.4585 377.644L47.9225 290.027C48.0798 289.471 48.4258 288.989 48.9185 288.685L54.8736 284.963C55.639 284.47 56.6349 284.501 57.3794 285.026C58.1342 285.55 58.4907 286.473 58.302 287.364L40.5729 371.396C40.4471 371.993 40.0802 372.528 39.556 372.853L27.8659 380.161C27.4989 380.391 27.0795 380.507 26.6602 380.507ZM52.0848 292.071L30.3507 373.241L36.3268 369.509L52.7453 291.652L52.0848 292.071Z" fill="#B7B7D9"/>
<path d="M72.4783 273.702C72.1113 273.702 71.7339 273.608 71.3984 273.43C70.4548 272.916 70.004 271.836 70.287 270.809L87.6177 209.444C87.9427 208.291 89.0436 207.62 90.2912 207.84C91.4655 208.091 92.2413 209.213 92.0631 210.398L84.4934 260.608C84.4199 261.037 84.2417 261.446 83.9482 261.771L74.1872 272.927C73.7468 273.43 73.1178 273.702 72.4783 273.702ZM82.1658 245.479L77.4059 262.337L80.0899 259.276L82.1658 245.479Z" fill="#B7B7D9"/>
<path d="M89.8084 212.337C89.0325 212.337 88.2777 211.939 87.8583 211.226C87.2397 210.199 87.5228 208.877 88.5084 208.196L137.9 173.629C138.749 173.031 139.934 173.105 140.72 173.797C141.507 174.51 141.706 175.663 141.192 176.585L133.801 190.089C133.581 190.498 133.245 190.823 132.826 191.033L90.8254 212.096C90.5004 212.264 90.1544 212.337 89.8084 212.337ZM132.532 182.939L116.627 194.063L130.152 187.28L132.532 182.939Z" fill="#B7B7D9"/>
<path d="M307.001 59.7481C306.509 59.7481 306.016 59.5805 305.618 59.2763C305.072 58.857 304.747 58.2174 304.726 57.5359L304.338 43.3925C304.307 42.344 304.999 41.4215 306.005 41.1384L395.196 16.3429C395.867 16.1437 396.59 16.2905 397.157 16.6993C397.723 17.1187 398.058 17.7687 398.079 18.4712L398.572 36.4728C398.603 37.5528 397.869 38.5068 396.821 38.7479L307.526 59.6852C307.347 59.7272 307.18 59.7481 307.001 59.7481ZM308.941 45.049L309.203 54.6213L393.969 34.7429L393.613 21.5012L308.941 45.049Z" fill="#B7B7D9"/>
<path d="M148.833 155.816C148.361 155.816 147.889 155.67 147.491 155.376C146.747 154.831 146.401 153.887 146.631 152.985L148.55 145.363C148.676 144.839 149.001 144.367 149.441 144.053L222.779 92.5325C223.566 91.9768 224.593 91.9874 225.379 92.5116C226.166 93.0568 226.533 94.0212 226.292 94.9439L222.528 109.884C222.391 110.461 222.024 110.954 221.521 111.268L150.028 155.481C149.661 155.701 149.242 155.816 148.833 155.816ZM152.754 147.292L152.408 148.655L218.344 107.882L220.389 99.7667L152.754 147.292Z" fill="#B7B7D9"/>
<path d="M82.2368 262.547C81.9328 262.547 81.6182 262.484 81.3247 262.358C80.3811 261.939 79.8359 260.954 79.9827 259.937L87.5524 209.727C87.7306 208.574 88.4855 207.609 89.8904 207.787C91.0437 207.829 91.9873 208.741 92.0712 209.895L94.8705 247.219C94.9125 247.796 94.7447 248.362 94.3777 248.813L84.0087 261.698C83.5683 262.243 82.9078 262.547 82.2368 262.547ZM89.0517 230.35L85.7386 252.294L90.2679 246.664L89.0517 230.35Z" fill="#B7B7D9"/>
<path d="M89.8082 212.338C88.8541 212.338 87.9735 211.729 87.6589 210.796C87.292 209.727 87.7742 208.542 88.7912 208.028L130.792 186.966C131.693 186.515 132.784 186.703 133.476 187.448C134.168 188.192 134.283 189.304 133.759 190.163L125.088 204.663C124.763 205.219 124.207 205.607 123.578 205.733L90.2486 212.296C90.1018 212.327 89.9551 212.338 89.8082 212.338ZM125.853 194.535L105.776 204.6L121.702 201.465L125.853 194.535Z" fill="#B7B7D9"/>
<path d="M396.296 38.8108C395.72 38.8108 395.164 38.5906 394.745 38.2027C394.304 37.7834 394.042 37.2067 394.021 36.5986L393.528 18.597C393.497 17.3808 394.42 16.3638 395.625 16.2694L487.804 9.04572C488.422 8.94082 489.041 9.20301 489.502 9.62236C489.964 10.0417 490.236 10.6288 490.257 11.2474L490.823 32.3839C490.855 33.621 489.89 34.659 488.653 34.7219L396.401 38.8108H396.296ZM398.131 20.6309L398.509 34.1663L486.21 30.2766L485.77 13.7637L398.131 20.6309Z" fill="#B7B7D9"/>
<path d="M667.789 76.974C667.548 76.974 667.307 76.932 667.066 76.8586L579.511 47.4919C578.609 47.1879 577.991 46.3491 577.959 45.3951L577.32 21.8893C577.299 21.1554 577.634 20.4529 578.232 20.0126C578.819 19.5618 579.574 19.4254 580.287 19.6561L667.81 47.5864C668.733 47.88 669.362 48.7293 669.393 49.6938L670.064 74.6361C670.085 75.3805 669.74 76.083 669.142 76.5233C668.743 76.8168 668.272 76.974 667.789 76.974ZM582.468 43.6861L665.43 71.5116L664.885 51.434L581.954 24.9715L582.468 43.6861Z" fill="#B7B7D9"/>
<path d="M580.235 47.6071C580.13 47.6071 580.025 47.5966 579.92 47.5862L488.234 34.7009C487.133 34.5436 486.305 33.6209 486.274 32.5097L485.708 11.3732C485.687 10.7127 485.959 10.0732 486.441 9.63278C486.934 9.18197 487.49 9.04565 488.245 9.04565L579.857 19.5615C580.979 19.6978 581.839 20.6309 581.87 21.7632L582.51 45.2691C582.531 45.9401 582.248 46.5795 581.755 47.0303C581.335 47.4078 580.79 47.6071 580.235 47.6071ZM490.771 30.4652L577.886 42.7005L577.372 23.8601L490.331 13.8686L490.771 30.4652Z" fill="#B7B7D9"/>
<path d="M92.6077 249.662C92.3981 249.662 92.1779 249.63 91.9682 249.567C91.0666 249.305 90.406 248.498 90.3431 247.554L87.5438 210.23C87.4599 209.171 88.1204 208.196 89.1374 207.892C90.1754 207.557 91.2657 208.007 91.7795 208.93L105.105 232.153C105.556 232.939 105.503 233.914 104.958 234.648L94.432 248.75C93.9916 249.337 93.3102 249.662 92.6077 249.662ZM92.8279 219.897L94.4215 241.159L100.419 233.118L92.8279 219.897Z" fill="#B7B7D9"/>
<path d="M113.47 220.725C113.219 220.725 112.957 220.683 112.716 220.589L89.0524 212.201C88.0773 211.866 87.4692 210.922 87.5426 209.895C87.616 208.878 88.3604 208.028 89.3669 207.829L122.697 201.266C123.588 201.056 124.51 201.465 125.024 202.22C125.528 202.975 125.538 203.971 125.045 204.737L115.379 219.687C114.949 220.348 114.225 220.725 113.47 220.725ZM98.3834 210.691L112.537 215.703L118.314 206.77L98.3834 210.691Z" fill="#B7B7D9"/>
<path d="M103.134 235.56H103.029C102.253 235.518 101.55 235.089 101.162 234.418L87.8368 211.195C87.365 210.366 87.4489 209.339 88.057 208.605C88.6756 207.892 89.703 207.588 90.5628 207.924L114.226 216.311C114.897 216.542 115.421 217.076 115.641 217.758C115.851 218.429 115.746 219.163 115.337 219.75L105 234.585C104.57 235.193 103.878 235.56 103.134 235.56ZM94.8404 214.256L103.322 229.039L109.896 219.593L94.8404 214.256Z" fill="#B7B7D9"/>
<path d="M20.3698 471.794C19.9609 471.794 19.5625 471.689 19.1956 471.469C18.4617 471.029 18.0423 470.211 18.1052 469.362L24.3958 378.074C24.4378 377.351 24.8362 376.69 25.4547 376.302L37.1448 368.995C37.8473 368.544 38.7385 368.523 39.4619 368.942C40.1852 369.351 40.6361 370.117 40.6256 370.945L39.6296 458.93C39.6191 459.706 39.2207 460.429 38.5602 460.838L21.5755 471.448C21.2086 471.679 20.7892 471.794 20.3698 471.794ZM28.8517 379.542L22.949 465.231L35.0899 457.64L36.0335 375.055L28.8517 379.542Z" fill="#B7B7D9"/>
<path d="M38.3508 373.199C37.9524 373.199 37.554 373.094 37.187 372.885C36.3483 372.381 35.9288 371.406 36.1281 370.452L53.8572 286.42C53.962 285.938 54.2241 285.487 54.6015 285.162L62.1398 278.693C62.8423 278.096 63.8593 277.98 64.7085 278.421C65.5368 278.871 65.9981 279.794 65.8722 280.727L55.4193 358.511C55.3459 359.066 55.0734 359.57 54.6435 359.936L39.8291 372.654C39.4097 373.01 38.8855 373.199 38.3508 373.199ZM58.1453 288.119L41.9574 364.822L51.0264 357.043L60.5672 286.032L58.1453 288.119Z" fill="#B7B7D9"/>
<path d="M144.925 165.818C144.369 165.818 143.824 165.619 143.394 165.231C142.702 164.592 142.461 163.596 142.807 162.715L146.717 152.713C146.896 152.251 147.221 151.864 147.64 151.601L219.133 107.389C219.972 106.896 221.041 106.959 221.786 107.578C222.54 108.207 222.803 109.245 222.446 110.157L214.771 129.773C214.572 130.287 214.184 130.717 213.692 130.968L145.963 165.567C145.627 165.734 145.281 165.818 144.925 165.818ZM150.681 155.072L149.223 158.794L210.85 127.309L215.726 114.854L150.681 155.072Z" fill="#B7B7D9"/>
<path d="M220.327 111.604C219.771 111.604 219.236 111.405 218.806 111.027C218.177 110.461 217.915 109.591 218.125 108.773L221.889 93.8327C222.056 93.1512 222.528 92.5956 223.168 92.3125L306.078 55.397C306.854 55.03 307.798 55.1664 308.469 55.7325C309.129 56.2986 309.423 57.1898 309.202 58.0286L303.719 79.7312C303.541 80.4546 303.006 81.0523 302.314 81.3039L221.123 111.457C220.861 111.551 220.589 111.604 220.327 111.604ZM226.03 96.0134L223.587 105.69L299.609 77.4561L303.646 61.4571L226.03 96.0134Z" fill="#B7B7D9"/>
<path d="M31.4929 563.281C31.1574 563.281 30.822 563.207 30.5074 563.061C29.8155 562.725 29.333 562.054 29.2388 561.278L18.1149 469.792C17.9996 468.922 18.4189 468.062 19.1633 467.59L36.148 456.98C36.798 456.581 37.6053 456.529 38.2763 456.833C38.9682 457.137 39.461 457.766 39.5973 458.511L55.3763 547.093C55.5336 548.005 55.1247 548.928 54.3384 549.421L32.6986 562.935C32.3317 563.166 31.9123 563.281 31.4929 563.281ZM22.8014 470.683L33.3172 557.179L50.6269 546.38L35.7076 462.62L22.8014 470.683Z" fill="#B7B7D9"/>
<path d="M53.1646 360.482C52.8291 360.482 52.4831 360.408 52.1686 360.251C51.2879 359.821 50.7847 358.877 50.9105 357.902L61.3634 280.119C61.4263 279.637 61.6466 279.175 61.9925 278.829L70.8518 269.834C71.5122 269.163 72.5187 268.974 73.368 269.33C74.2277 269.697 74.7729 270.557 74.7519 271.49L72.7809 340.645C72.7599 341.222 72.5293 341.767 72.1308 342.176L54.7897 359.8C54.3493 360.251 53.7623 360.482 53.1646 360.482ZM65.7668 281.482L56.3309 351.748L68.2621 339.628L70.034 277.141L65.7668 281.482Z" fill="#B7B7D9"/>
<path d="M139.2 177.77C138.571 177.77 137.963 177.508 137.522 177.026C136.893 176.345 136.746 175.348 137.145 174.51L142.869 162.557C143.09 162.107 143.446 161.74 143.886 161.52L211.615 126.921C212.496 126.491 213.544 126.628 214.236 127.32C214.939 128.001 215.128 129.049 214.708 129.93L203.448 153.426C203.186 153.96 202.735 154.369 202.179 154.568L139.986 177.624C139.734 177.728 139.462 177.77 139.2 177.77ZM146.644 165.221L143.677 171.406L199.737 150.626L207.694 134.03L146.644 165.221Z" fill="#B7B7D9"/>
<path d="M59.6031 651.412C59.341 651.412 59.0684 651.37 58.8167 651.276C58.1563 651.035 57.653 650.5 57.4328 649.829L29.3242 561.697C29.0097 560.701 29.4081 559.632 30.2888 559.076L51.9285 545.562C52.5157 545.195 53.2182 545.121 53.8681 545.342C54.5181 545.562 55.0319 546.055 55.2626 546.694L87.1455 632.488C87.523 633.505 87.135 634.647 86.2229 635.214L60.8088 651.066C60.4418 651.297 60.0224 651.412 59.6031 651.412ZM34.1995 562.001L60.8822 645.656L82.2388 632.341L51.9705 550.898L34.1995 562.001Z" fill="#B7B7D9"/>
<path d="M301.519 81.4507C300.89 81.4507 300.282 81.1887 299.852 80.7168C299.327 80.1507 299.128 79.3643 299.317 78.62L304.8 56.9173C305.01 56.0891 305.66 55.4495 306.478 55.2608L395.773 34.3235C396.58 34.1244 397.356 34.3759 397.922 34.9421C398.478 35.5082 398.698 36.326 398.499 37.0914L391.537 64.7387C391.317 65.6088 390.604 66.2695 389.724 66.4268L301.907 81.4193C301.77 81.4402 301.645 81.4507 301.519 81.4507ZM308.868 59.3707L304.58 76.3447L387.49 62.1908L393.184 39.6075L308.868 59.3707Z" fill="#B7B7D9"/>
<path d="M37.3558 461.184C37.0309 461.184 36.7057 461.111 36.3913 460.974C35.5839 460.597 35.0702 459.779 35.0807 458.888L36.0767 370.903C36.0873 370.243 36.3702 369.624 36.8736 369.194L51.688 356.477C52.3484 355.921 53.2396 355.795 54.0469 356.11C54.8332 356.445 55.3784 357.19 55.4309 358.049L61.1239 440.33C61.1763 441.043 60.8827 441.746 60.3376 442.218L38.8341 460.639C38.4148 460.995 37.8906 461.184 37.3558 461.184ZM40.6165 371.983L39.6834 453.918L56.5108 439.502L51.2057 362.883L40.6165 371.983Z" fill="#B7B7D9"/>
<path d="M70.508 342.857C70.2249 342.857 69.9419 342.805 69.6797 342.7C68.7885 342.344 68.2119 341.473 68.2329 340.519L70.2039 271.365C70.2248 270.83 70.4242 270.327 70.7701 269.928L80.531 258.773C81.1182 258.091 82.0094 257.829 82.9005 258.091C83.7602 258.353 84.3788 259.098 84.4941 259.989L91.959 318.429C92.0428 319.068 91.8436 319.719 91.4138 320.211L72.2169 342.082C71.7765 342.585 71.1475 342.857 70.508 342.857ZM74.7332 272.308L72.9613 334.344L87.3144 317.978L80.6254 265.577L74.7332 272.308Z" fill="#B7B7D9"/>
<path d="M131.807 191.274C131.084 191.274 130.392 190.928 129.962 190.331C129.448 189.618 129.396 188.674 129.815 187.909L137.207 174.405C137.469 173.923 137.899 173.556 138.412 173.367L200.606 150.312C201.476 149.945 202.493 150.228 203.111 150.952C203.73 151.665 203.845 152.692 203.384 153.531L188.947 179.993C188.622 180.591 188.035 181.021 187.364 181.136L132.216 191.233C132.08 191.264 131.944 191.274 131.807 191.274ZM140.782 177.33L136.095 185.906L185.477 176.858L196.485 156.687L140.782 177.33Z" fill="#B7B7D9"/>
<path d="M212.654 131.22C212.014 131.22 211.396 130.947 210.966 130.465C210.389 129.826 210.222 128.913 210.536 128.117L218.211 108.5C218.452 107.892 218.934 107.421 219.532 107.2L300.723 77.0474C301.582 76.7014 302.515 76.9531 303.145 77.5821C303.774 78.2217 303.962 79.1652 303.637 80.004L292.524 108.459C292.262 109.13 291.696 109.633 291.004 109.822L213.252 131.136C213.052 131.188 212.853 131.22 212.654 131.22ZM222.079 111.111L216.428 125.558L288.708 105.743L297.556 83.0758L222.079 111.111Z" fill="#B7B7D9"/>
<path d="M480.382 67.2234H480.361L389.315 66.458C388.623 66.4475 387.962 66.1225 387.533 65.5774C387.113 65.0217 386.956 64.3088 387.134 63.6273L394.096 35.98C394.337 35.005 395.197 34.3131 396.193 34.2606L488.445 30.1717C489.252 30.1611 489.86 30.4547 490.311 31.0102C490.762 31.5658 490.929 32.2998 490.751 33.0023L482.584 65.5038C482.332 66.5103 481.42 67.2234 480.382 67.2234ZM392.251 61.9288L478.61 62.6627L485.603 34.8583L398.09 38.7375L392.251 61.9288Z" fill="#B7B7D9"/>
<path d="M89.7035 320.987C89.4938 320.987 89.2946 320.955 89.0849 320.903C88.2042 320.651 87.5646 319.907 87.4493 318.995L79.9845 260.555C79.9006 259.947 80.0788 259.328 80.4667 258.846L90.8358 245.961C91.3495 245.321 92.1358 244.965 92.9641 245.143C93.7714 245.269 94.4424 245.814 94.7359 246.579L112.15 292.637C112.434 293.392 112.297 294.241 111.794 294.87L91.4753 320.138C91.0349 320.683 90.385 320.987 89.7035 320.987ZM84.6185 260.943L91.2866 313.124L107.433 293.036L91.8842 251.906L84.6185 260.943Z" fill="#B7B7D9"/>
<path d="M658.134 115.284C657.872 115.284 657.61 115.242 657.358 115.148L570.359 83.5581C569.258 83.1597 568.64 81.996 568.933 80.8636L578.034 44.7763C578.18 44.1577 578.589 43.644 579.145 43.3399C579.69 43.0359 580.372 42.9836 580.959 43.1723L668.514 72.5391C669.635 72.9165 670.285 74.1012 669.992 75.2545L660.336 113.564C660.179 114.193 659.77 114.718 659.204 115.022C658.868 115.189 658.501 115.284 658.134 115.284ZM573.84 79.983L656.54 110.01L665.075 76.1876L581.839 48.2677L573.84 79.983Z" fill="#B7B7D9"/>
<path d="M571.134 83.6944C570.997 83.6944 570.861 83.6839 570.725 83.6524L479.972 67.1815C479.353 67.0766 478.808 66.7096 478.473 66.1855C478.127 65.6508 478.022 65.0007 478.179 64.3927L486.347 31.8911C486.619 30.7693 487.72 30.1089 488.863 30.1928L580.549 43.0781C581.188 43.1725 581.765 43.5289 582.121 44.0636C582.478 44.5984 582.593 45.2589 582.436 45.8879L573.335 81.9751C573.084 83.0025 572.161 83.6944 571.134 83.6944ZM483.18 63.145L569.446 78.7982L577.414 47.2297L490.257 34.9842L483.18 63.145Z" fill="#B7B7D9"/>
<path d="M169.909 209.612C169.846 209.612 169.784 209.612 169.721 209.601L122.95 205.764C122.174 205.701 121.472 205.24 121.115 204.537C120.759 203.845 120.78 203.006 121.189 202.335L129.859 187.835C130.195 187.269 130.75 186.881 131.4 186.766L186.548 176.669C187.418 176.47 188.32 176.869 188.823 177.603C189.337 178.347 189.368 179.301 188.907 180.077L171.859 208.51C171.451 209.192 170.706 209.612 169.909 209.612ZM126.965 201.528L168.683 204.956L182.417 182.048L133.235 191.054L126.965 201.528Z" fill="#B7B7D9"/>
<path d="M110.022 295.72C109.917 295.72 109.812 295.709 109.707 295.699C108.879 295.583 108.187 295.028 107.893 294.252L90.4787 248.194C90.2061 247.46 90.3214 246.653 90.7827 246.024L101.309 231.922C101.728 231.366 102.368 231.031 103.06 231.01C103.49 230.937 104.412 231.283 104.863 231.818L132.437 264.277C133.129 265.084 133.16 266.259 132.531 267.108L111.846 294.808C111.416 295.384 110.734 295.72 110.022 295.72ZM95.1757 247.743L110.682 288.758L127.803 265.839L103.249 236.934L95.1757 247.743Z" fill="#B7B7D9"/>
<path d="M150.932 238.947C150.596 238.947 150.261 238.873 149.936 238.716L112.475 220.494C111.888 220.211 111.458 219.687 111.28 219.058C111.102 218.429 111.206 217.758 111.563 217.213L121.229 202.262C121.68 201.56 122.488 201.077 123.326 201.235L170.097 205.072C170.894 205.135 171.596 205.617 171.953 206.33C172.299 207.053 172.257 207.903 171.816 208.574L152.84 237.909C152.41 238.569 151.676 238.947 150.932 238.947ZM116.774 217.527L150.114 233.747L165.935 209.297L124.312 205.879L116.774 217.527Z" fill="#B7B7D9"/>
<path d="M130.706 268.02C130.035 268.02 129.406 267.726 128.976 267.212L101.402 234.753C100.731 233.967 100.679 232.834 101.266 231.985L111.604 217.15C112.254 216.227 113.459 215.913 114.466 216.405L151.927 234.627C152.524 234.921 152.965 235.455 153.132 236.095C153.3 236.745 153.174 237.426 152.797 237.972L132.572 267.045C132.174 267.621 131.524 267.978 130.811 268.02L130.706 268.02ZM106.005 233.149L130.528 262.023L147.544 237.552L114.225 221.343L106.005 233.149Z" fill="#B7B7D9"/>
<path d="M53.1334 549.766C52.8818 549.766 52.6197 549.724 52.368 549.63C51.6027 549.357 51.0366 548.697 50.8898 547.89L35.1108 459.307C34.9744 458.51 35.2681 457.703 35.8761 457.179L57.3796 438.758C57.9771 438.244 58.816 438.076 59.5394 438.317C60.2942 438.559 60.8604 439.156 61.0596 439.921L82.6574 523.471C82.8776 524.31 82.5944 525.201 81.934 525.768L54.6117 549.221C54.1924 549.578 53.6682 549.766 53.1334 549.766ZM39.8183 459.79L54.6746 543.172L77.8975 523.23L57.5683 444.587L39.8183 459.79Z" fill="#B7B7D9"/>
<path d="M58.8583 442.763C58.5962 442.763 58.3236 442.721 58.0719 442.627C57.2332 442.312 56.6461 441.536 56.5936 440.645L50.9006 358.364C50.8482 357.714 51.0894 357.074 51.5402 356.613L68.8813 338.989C69.4789 338.391 70.3596 338.14 71.1774 338.412C71.9847 338.664 72.5928 339.345 72.7396 340.174L86.2434 414.476C86.3798 415.21 86.149 415.954 85.6353 416.479L60.4833 442.082C60.0429 442.522 59.4559 442.763 58.8583 442.763ZM55.5033 359.066L60.7769 435.288L81.5569 414.13L69.0491 345.3L55.5033 359.066Z" fill="#B7B7D9"/>
<path d="M201.393 154.715C200.68 154.715 199.998 154.38 199.558 153.793C199.065 153.111 198.981 152.22 199.338 151.455L210.598 127.959C210.892 127.372 211.416 126.921 212.055 126.754L289.807 105.439C290.688 105.219 291.59 105.491 292.156 106.173C292.722 106.854 292.837 107.808 292.46 108.616L276.115 142.711C275.779 143.392 275.14 143.864 274.395 143.979L201.728 154.694C201.613 154.705 201.498 154.715 201.393 154.715ZM214.257 130.863L205.293 149.568L272.529 139.649L286.201 111.142L214.257 130.863Z" fill="#B7B7D9"/>
<path d="M290.405 109.905C289.692 109.905 289.011 109.57 288.581 108.993C288.109 108.364 288.004 107.536 288.287 106.802L299.401 78.3474C299.694 77.6029 300.344 77.0683 301.131 76.932L388.948 61.9393C389.828 61.8135 390.583 62.107 391.097 62.7466C391.621 63.3862 391.758 64.2459 391.453 65.0113L377.279 101.203C376.964 102.011 376.22 102.566 375.36 102.64L290.604 109.895C290.531 109.905 290.468 109.905 290.405 109.905ZM303.165 81.1991L293.855 105.051L373.557 98.2257L385.75 67.0976L303.165 81.1991Z" fill="#B7B7D9"/>
<path d="M85.0151 635.56C84.8264 635.56 84.6376 635.539 84.4489 635.486C83.7256 635.298 83.1384 634.773 82.8868 634.081L51.0038 548.288C50.6683 547.386 50.9304 546.39 51.6539 545.761L78.9761 522.308C79.5108 521.846 80.2972 521.689 80.9472 521.815C81.6496 521.972 82.2368 522.454 82.5303 523.104L119.278 604.746C119.687 605.669 119.446 606.749 118.68 607.409L86.4934 635.015C86.074 635.371 85.5499 635.56 85.0151 635.56ZM55.8161 548.183L86.0111 629.437L114.434 605.061L79.6261 527.749L55.8161 548.183Z" fill="#B7B7D9"/>
<path d="M84.01 417.16C83.8108 417.16 83.601 417.128 83.4019 417.076C82.5632 416.845 81.9236 416.153 81.7768 415.294L68.273 340.991C68.1471 340.309 68.3358 339.607 68.7972 339.083L87.994 317.212C88.5287 316.594 89.3569 316.3 90.1433 316.479C90.9402 316.636 91.5902 317.202 91.8523 317.967L114.058 382.394C114.32 383.17 114.153 384.029 113.618 384.637L85.7189 416.384C85.2785 416.887 84.6495 417.16 84.01 417.16ZM72.9385 341.253L85.4044 409.852L109.33 382.635L88.8328 323.157L72.9385 341.253Z" fill="#B7B7D9"/>
<path d="M253.091 182.426H253.049L186.914 181.178C186.117 181.157 185.394 180.738 184.985 180.046C184.587 179.354 184.576 178.515 184.964 177.813L199.401 151.35C199.736 150.721 200.355 150.291 201.057 150.186L273.725 139.471C274.637 139.377 275.434 139.723 275.926 140.425C276.419 141.128 276.471 142.061 276.052 142.816L255.083 181.241C254.685 181.975 253.92 182.426 253.091 182.426ZM190.751 176.701L251.76 177.855L269.877 144.64L202.85 154.527L190.751 176.701Z" fill="#B7B7D9"/>
<path d="M463.711 109.8C463.648 109.8 463.585 109.8 463.533 109.79L374.982 102.64C374.259 102.587 373.609 102.189 373.231 101.581C372.854 100.973 372.78 100.218 373.042 99.5467L387.217 63.3547C387.563 62.4845 388.402 61.9078 389.335 61.9078H389.356L480.402 62.6732C481.147 62.6837 481.849 63.0507 482.269 63.6692C482.688 64.2982 482.772 65.0846 482.499 65.7766L465.829 108.354C465.483 109.234 464.644 109.8 463.711 109.8ZM378.389 98.3515L462.212 105.124L477.058 67.192L390.887 66.4685L378.389 98.3515Z" fill="#B7B7D9"/>
<path d="M80.4557 526.313C80.2566 526.313 80.0573 526.292 79.8686 526.239C79.0718 526.019 78.4637 525.401 78.254 524.604L56.6562 441.054C56.4571 440.289 56.6772 439.46 57.2329 438.894L82.3848 413.291C82.93 412.736 83.7059 412.495 84.4817 412.662C85.2471 412.82 85.8657 413.365 86.1382 414.088L114.645 490.666C114.96 491.494 114.761 492.427 114.142 493.056L82.0808 525.631C81.6404 526.072 81.0534 526.313 80.4557 526.313ZM61.3847 441.169L81.6509 519.582L109.885 490.897L83.1292 419.026L61.3847 441.169Z" fill="#B7B7D9"/>
<path d="M111.908 385.413C111.782 385.413 111.646 385.403 111.52 385.382C110.702 385.235 110.031 384.659 109.759 383.883L87.5527 319.456C87.3011 318.712 87.4374 317.894 87.9302 317.286L108.249 292.018C108.721 291.442 109.486 291.064 110.178 291.18C110.922 291.232 111.593 291.641 111.981 292.281L143.403 345.279C143.885 346.097 143.812 347.135 143.214 347.869L113.68 384.564C113.239 385.109 112.589 385.413 111.908 385.413ZM92.2602 319.163L112.715 378.504L138.685 346.244L109.738 297.428L92.2602 319.163Z" fill="#B7B7D9"/>
<path d="M552.619 131.031C552.441 131.031 552.263 131.01 552.095 130.968L463.187 109.737C462.548 109.58 462.003 109.161 461.699 108.574C461.395 107.997 461.353 107.305 461.594 106.697L478.264 64.12C478.662 63.1135 479.742 62.4845 480.791 62.7151L571.543 79.186C572.214 79.3014 572.791 79.7207 573.116 80.3079C573.451 80.9054 573.504 81.6185 573.252 82.2475L554.737 129.584C554.391 130.476 553.542 131.031 552.619 131.031ZM466.783 105.921L551.225 126.083L568.01 83.1596L481.818 67.517L466.783 105.921Z" fill="#B7B7D9"/>
<path d="M718.001 211.981C717.603 211.981 717.204 211.876 716.858 211.667L637.334 165.2C636.359 164.634 635.951 163.449 636.359 162.411L656.018 112.18C656.259 111.562 656.752 111.09 657.381 110.859C657.989 110.65 658.691 110.723 659.257 111.027L739.169 156.519C740.155 157.085 740.574 158.28 740.165 159.328L720.119 210.534C719.878 211.153 719.375 211.635 718.746 211.855C718.504 211.939 718.253 211.981 718.001 211.981ZM641.308 162.254L716.848 206.403L735.217 159.507L659.299 116.29L641.308 162.254Z" fill="#B7B7D9"/>
<path d="M638.474 165.514C638.191 165.514 637.898 165.462 637.625 165.347L551.769 130.863C550.616 130.402 550.049 129.092 550.5 127.928L569.016 80.5909C569.456 79.4377 570.777 78.8505 571.909 79.2804L658.909 110.87C659.485 111.079 659.957 111.509 660.209 112.075C660.46 112.631 660.471 113.271 660.25 113.837L640.592 164.067C640.372 164.634 639.932 165.084 639.376 165.326C639.093 165.451 638.779 165.514 638.474 165.514ZM555.554 127.487L637.195 160.272L655.166 114.351L572.444 84.3129L555.554 127.487Z" fill="#B7B7D9"/>
<path d="M228.359 223.724C228.181 223.724 228.002 223.703 227.824 223.661L169.374 209.549C168.671 209.381 168.095 208.888 167.812 208.217C167.529 207.546 167.581 206.791 167.958 206.162L185.006 177.729C185.415 177.037 185.981 176.817 186.998 176.628L253.133 177.875C253.941 177.896 254.685 178.337 255.083 179.05C255.471 179.763 255.461 180.622 255.042 181.314L230.309 222.612C229.89 223.315 229.145 223.724 228.359 223.724ZM173.452 205.848L227.268 218.848L249.118 182.352L188.225 181.199L173.452 205.848Z" fill="#B7B7D9"/>
<path d="M354.371 146.055H354.308L273.998 144C273.232 143.979 272.519 143.57 272.121 142.91C271.723 142.25 271.681 141.442 272.006 140.74L288.351 106.645C288.707 105.921 289.41 105.428 290.206 105.366L374.973 98.1103C375.801 98.0054 376.577 98.4144 377.027 99.0854C377.499 99.7564 377.562 100.627 377.216 101.36L356.426 144.766C356.048 145.552 355.241 146.055 354.371 146.055ZM277.625 139.545L352.955 141.474L371.387 102.986L291.894 109.79L277.625 139.545Z" fill="#B7B7D9"/>
<path d="M141.443 348.718H141.327C140.562 348.676 139.87 348.257 139.482 347.607L108.061 294.608C107.599 293.812 107.652 292.816 108.197 292.082L128.883 264.382C129.281 263.858 129.878 263.522 130.539 263.48C131.137 263.313 131.839 263.669 132.311 264.13L173.032 304.621C173.84 305.418 173.923 306.686 173.252 307.598L143.267 347.806C142.837 348.383 142.156 348.718 141.443 348.718ZM112.747 293.591L141.663 342.344L168.43 306.456L130.958 269.205L112.747 293.591Z" fill="#B7B7D9"/>
<path d="M200.784 266.29C200.407 266.29 200.04 266.196 199.694 266.007L149.841 238.663C149.285 238.359 148.876 237.846 148.73 237.227C148.572 236.619 148.677 235.969 149.023 235.434L168 206.099C168.524 205.281 169.509 204.904 170.443 205.124L228.893 219.236C229.606 219.414 230.193 219.917 230.466 220.609C230.749 221.291 230.665 222.067 230.266 222.685L202.693 265.252C202.263 265.923 201.529 266.29 200.784 266.29ZM154.171 235.854L200.03 261.006L224.699 222.906L170.946 209.926L154.171 235.854Z" fill="#B7B7D9"/>
<path d="M171.429 308.511C170.832 308.511 170.255 308.27 169.825 307.85L129.104 267.36C128.318 266.584 128.213 265.357 128.842 264.445L149.066 235.372C149.727 234.418 151.006 234.124 152.023 234.68L201.876 262.023C202.442 262.327 202.851 262.862 202.998 263.491C203.145 264.12 203.019 264.781 202.652 265.315L173.296 307.536C172.908 308.092 172.3 308.438 171.639 308.501C171.566 308.511 171.492 308.511 171.429 308.511ZM133.665 265.473L171.115 302.713L197.473 264.791L151.635 239.65L133.665 265.473Z" fill="#B7B7D9"/>
<path d="M117.203 607.954C117.067 607.954 116.941 607.944 116.805 607.923C116.06 607.787 115.442 607.294 115.127 606.612L78.3796 524.971C77.9917 524.111 78.1805 523.115 78.8305 522.444L110.892 489.869C111.395 489.355 112.129 489.146 112.821 489.209C113.534 489.303 114.152 489.733 114.498 490.352L156.855 566.258C157.348 567.139 157.201 568.24 156.499 568.963L118.828 607.273C118.398 607.713 117.811 607.954 117.203 607.954ZM83.171 524.52L117.916 601.716L152.053 566.992L112.013 495.216L83.171 524.52Z" fill="#B7B7D9"/>
<path d="M112.516 493.738C112.38 493.738 112.244 493.727 112.107 493.696C111.321 493.559 110.661 493.004 110.388 492.259L81.8811 415.682C81.5875 414.895 81.7447 414.015 82.3004 413.386L110.199 381.639C110.692 381.083 111.416 380.779 112.17 380.884C112.915 380.968 113.565 381.408 113.921 382.069L149.988 449.997C150.428 450.836 150.312 451.853 149.683 452.566L114.225 492.962C113.785 493.455 113.166 493.738 112.516 493.738ZM86.62 415.367L113.324 487.101L145.228 450.741L111.447 387.112L86.62 415.367Z" fill="#B7B7D9"/>
<path d="M439.264 160.828C439.138 160.828 439.002 160.817 438.876 160.796L353.984 146.024C353.281 145.898 352.673 145.458 352.348 144.818C352.023 144.189 352.013 143.445 352.317 142.795L373.107 99.3895C373.527 98.5508 374.47 97.9741 375.341 98.1104L463.892 105.261C464.646 105.324 465.307 105.743 465.684 106.393C466.062 107.043 466.093 107.83 465.768 108.511L441.319 159.538C440.931 160.335 440.123 160.828 439.264 160.828ZM357.716 142.05L437.953 156.016L460.232 109.528L376.536 102.765L357.716 142.05Z" fill="#B7B7D9"/>
<path d="M327.719 194.975C327.594 194.975 327.468 194.965 327.342 194.944L252.714 182.394C251.991 182.268 251.372 181.807 251.047 181.147C250.722 180.486 250.743 179.71 251.1 179.06L272.068 140.635C272.477 139.88 273.169 139.356 274.123 139.45L354.434 141.505C355.22 141.526 355.943 141.956 356.342 142.648C356.74 143.329 356.751 144.168 356.363 144.871L329.712 193.791C329.313 194.525 328.537 194.975 327.719 194.975ZM256.615 178.442L326.493 190.184L350.596 145.961L275.392 144.032L256.615 178.442Z" fill="#B7B7D9"/>
<path d="M167.591 684.553C167.518 684.553 167.445 684.553 167.371 684.543C166.69 684.48 166.071 684.102 165.694 683.526L115.306 606.927C114.719 606.036 114.834 604.851 115.578 604.086L153.249 565.776C153.71 565.294 154.36 564.948 155.021 565.105C155.681 565.147 156.289 565.472 156.688 565.996L211.269 638.349C211.951 639.25 211.867 640.508 211.08 641.316L169.216 683.872C168.786 684.312 168.199 684.553 167.591 684.553ZM120.118 605.963L167.948 678.672L206.457 639.523L154.643 570.84L120.118 605.963Z" fill="#B7B7D9"/>
<path d="M147.974 453.342C147.9 453.342 147.827 453.342 147.754 453.331C146.999 453.258 146.328 452.807 145.961 452.136L109.895 384.208C109.475 383.4 109.57 382.425 110.136 381.712L139.67 345.017C140.1 344.472 140.54 344.105 141.473 344.168C142.176 344.178 142.826 344.503 143.256 345.069L187.384 402.975C188.014 403.803 188.003 404.956 187.343 405.774L149.746 452.492C149.316 453.027 148.655 453.342 147.974 453.342ZM114.623 383.4L148.362 446.957L182.677 404.306L141.39 350.133L114.623 383.4Z" fill="#B7B7D9"/>
<path d="M525.434 187.72C525.214 187.72 524.984 187.689 524.753 187.615L438.582 160.723C437.953 160.524 437.439 160.062 437.177 159.465C436.915 158.857 436.925 158.165 437.208 157.567L461.658 106.54C462.13 105.575 463.241 105.082 464.237 105.313L553.144 126.544C553.815 126.701 554.382 127.152 554.675 127.781C554.969 128.4 554.969 129.123 554.675 129.741L527.489 186.43C527.101 187.238 526.294 187.72 525.434 187.72ZM442.451 157.169L524.239 182.688L549.349 130.318L464.971 110.167L442.451 157.169Z" fill="#B7B7D9"/>
<path d="M296.235 247.534C295.983 247.534 295.732 247.492 295.48 247.408L227.604 223.598C226.965 223.367 226.451 222.864 226.22 222.224C225.99 221.574 226.053 220.861 226.409 220.285L251.142 178.987C251.614 178.169 252.547 177.739 253.469 177.907L328.097 190.457C328.841 190.582 329.47 191.065 329.785 191.746C330.1 192.428 330.058 193.225 329.67 193.864L298.185 246.422C297.766 247.125 297.021 247.534 296.235 247.534ZM231.746 220.222L295.239 242.501L324.061 194.388L254.245 182.646L231.746 220.222Z" fill="#B7B7D9"/>
<path d="M688.623 273.356C688.214 273.356 687.805 273.241 687.449 273.031L608.449 225.401C607.442 224.793 607.065 223.524 607.568 222.465L636.421 162.254C636.704 161.688 637.197 161.247 637.805 161.069C638.424 160.87 639.084 160.954 639.619 161.279L719.143 207.745C720.17 208.343 720.558 209.622 720.055 210.691L690.678 272.067C690.395 272.644 689.891 273.073 689.273 273.262C689.063 273.325 688.843 273.356 688.623 273.356ZM612.569 222.57L687.648 267.842L715.043 210.618L639.462 166.447L612.569 222.57Z" fill="#B7B7D9"/>
<path d="M609.623 225.726C609.308 225.726 608.994 225.663 608.69 225.527L524.5 187.521C523.945 187.269 523.504 186.798 523.295 186.221C523.085 185.644 523.116 185.015 523.378 184.46L550.564 127.771C551.099 126.701 552.347 126.188 553.469 126.649L639.325 161.132C639.912 161.363 640.363 161.824 640.594 162.411C640.824 162.998 640.803 163.659 640.531 164.225L611.678 224.437C611.279 225.244 610.472 225.726 609.623 225.726ZM528.495 184.334L608.532 220.463L635.372 164.445L553.752 131.66L528.495 184.334Z" fill="#B7B7D9"/>
<path d="M154.874 569.645C154.79 569.645 154.716 569.645 154.632 569.634C153.898 569.55 153.248 569.12 152.892 568.481L110.535 492.574C110.063 491.735 110.168 490.687 110.808 489.963L146.266 449.567C146.727 449.043 147.587 448.791 148.09 448.791C148.793 448.833 149.432 449.19 149.831 449.756L198.447 518.544C199.055 519.403 198.992 520.567 198.3 521.354L156.582 568.869C156.153 569.361 155.524 569.645 154.874 569.645ZM115.285 491.756L155.293 563.448L193.697 519.697L147.786 454.736L115.285 491.756Z" fill="#B7B7D9"/>
<path d="M185.573 406.623C184.86 406.623 184.2 406.288 183.76 405.722L139.631 347.817C139.023 347.009 139.012 345.898 139.62 345.08L169.606 304.873C169.994 304.359 170.57 304.034 171.199 303.971C171.923 303.887 172.478 304.118 172.95 304.548L225.257 351.476C226.127 352.252 226.263 353.583 225.561 354.527L187.398 405.711C186.968 406.277 186.286 406.623 185.573 406.623ZM144.296 346.433L185.552 400.574L220.675 353.467L171.765 309.59L144.296 346.433Z" fill="#B7B7D9"/>
<path d="M261.123 301.727C260.725 301.727 260.337 301.622 259.97 301.413L199.632 265.976C199.098 265.661 198.72 265.147 198.573 264.539C198.427 263.931 198.542 263.302 198.878 262.778L226.451 220.211C227.028 219.331 228.108 218.974 229.114 219.299L296.99 243.109C297.651 243.34 298.165 243.864 298.385 244.525C298.615 245.185 298.521 245.909 298.143 246.496L263.031 300.689C262.601 301.36 261.868 301.727 261.123 301.727ZM203.983 263.26L260.4 296.391L292.754 246.443L229.293 224.185L203.983 263.26Z" fill="#B7B7D9"/>
<path d="M223.736 355.439C223.18 355.439 222.635 355.229 222.216 354.852L169.909 307.924C169.06 307.158 168.903 305.879 169.563 304.936L198.919 262.715C199.611 261.74 200.912 261.478 201.939 262.054L262.276 297.492C262.822 297.817 263.21 298.351 263.346 298.97C263.482 299.589 263.356 300.228 262.989 300.752L225.602 354.464C225.235 354.998 224.648 355.344 223.998 355.418C223.914 355.428 223.82 355.439 223.736 355.439ZM174.449 305.89L223.338 349.756L257.852 300.165L201.446 267.045L174.449 305.89Z" fill="#B7B7D9"/>
<path d="M407.882 218.356C407.672 218.356 407.452 218.324 407.242 218.261L327.079 194.881C326.418 194.692 325.883 194.21 325.621 193.571C325.349 192.942 325.391 192.218 325.726 191.61L352.367 142.69C352.839 141.841 353.814 141.369 354.757 141.537L439.649 156.309C440.373 156.435 440.991 156.907 441.306 157.567C441.631 158.228 441.61 158.993 441.253 159.643L409.874 217.171C409.475 217.915 408.699 218.356 407.882 218.356ZM331.063 191.306L406.76 213.386L435.749 160.251L355.586 146.297L331.063 191.306Z" fill="#B7B7D9"/>
<path d="M209.455 641.997H209.372C208.69 641.966 208.05 641.641 207.642 641.096L153.06 568.743C152.41 567.883 152.452 566.678 153.165 565.87L194.882 518.355C195.312 517.862 195.931 517.579 196.591 517.579C197.241 517.579 197.86 517.862 198.3 518.345L257.537 585.403C258.292 586.262 258.292 587.552 257.537 588.412L211.164 641.221C210.735 641.714 210.106 641.997 209.455 641.997ZM157.809 567.474L209.592 636.126L252.798 586.912L196.591 523.293L157.809 567.474Z" fill="#B7B7D9"/>
<path d="M196.592 522.13H196.519C195.806 522.109 195.145 521.752 194.737 521.165L146.121 452.377C145.533 451.549 145.565 450.427 146.204 449.641L183.801 402.922C184.221 402.409 184.839 402.094 185.5 402.073C186.349 402.021 186.8 402.325 187.251 402.818L242.44 463.407C243.195 464.235 243.237 465.493 242.535 466.363L198.364 521.28C197.934 521.815 197.284 522.13 196.592 522.13ZM150.828 451.15L196.708 516.08L237.775 465.032L185.678 407.839L150.828 451.15Z" fill="#B7B7D9"/>
<path d="M274.196 707.965C273.588 707.965 273.001 707.724 272.571 707.283L207.83 641.316C207.002 640.467 206.96 639.114 207.746 638.223L254.118 585.413C254.527 584.952 255.093 584.669 255.712 584.637C256.299 584.606 256.918 584.826 257.379 585.245L324.982 647.973C325.884 648.812 325.957 650.217 325.14 651.139L275.905 707.189C275.486 707.661 274.888 707.943 274.259 707.965L274.196 707.965ZM212.558 639.638L274.102 702.345L320.264 649.798L255.995 590.173L212.558 639.638Z" fill="#B7B7D9"/>
<path d="M490.614 251.633C490.331 251.633 490.037 251.581 489.765 251.465L407.032 218.188C406.435 217.947 405.963 217.465 405.743 216.846C405.523 216.238 405.575 215.556 405.89 214.99L437.269 157.463C437.773 156.519 438.852 156.026 439.943 156.383L526.114 183.275C526.764 183.474 527.288 183.956 527.54 184.596C527.791 185.225 527.76 185.938 527.424 186.536L492.606 250.448C492.197 251.193 491.421 251.633 490.614 251.633ZM411.1 214.927L489.586 246.496L522.109 186.787L440.362 161.279L411.1 214.927Z" fill="#B7B7D9"/>
<path d="M370.894 280.14C370.59 280.14 370.275 280.077 369.982 279.951L295.322 247.345C294.725 247.083 294.264 246.579 294.064 245.95C293.865 245.332 293.949 244.65 294.284 244.095L325.769 191.537C326.304 190.645 327.352 190.205 328.359 190.52L408.522 213.9C409.193 214.099 409.738 214.592 410 215.252C410.252 215.902 410.199 216.647 409.833 217.244L372.844 279.029C372.424 279.742 371.669 280.14 370.894 280.14ZM299.516 244.21L369.971 274.982L404.423 217.443L328.768 195.374L299.516 244.21Z" fill="#B7B7D9"/>
<path d="M650.879 342.532C650.46 342.532 650.04 342.417 649.673 342.186L571.46 293.224C570.443 292.585 570.097 291.264 570.663 290.205L607.62 222.36C607.925 221.815 608.428 221.417 609.025 221.26C609.644 221.102 610.273 221.197 610.797 221.501L689.797 269.131C690.835 269.76 691.202 271.102 690.615 272.172L652.871 341.348C652.577 341.893 652.064 342.302 651.456 342.459C651.267 342.511 651.068 342.532 650.879 342.532ZM575.685 290.499L650.04 337.049L685.582 271.899L610.483 226.628L575.685 290.499Z" fill="#B7B7D9"/>
<path d="M572.666 293.57C572.32 293.57 571.963 293.487 571.628 293.319L489.577 251.381C489.032 251.109 488.623 250.616 488.445 250.029C488.256 249.442 488.319 248.813 488.623 248.267L523.431 184.355C524.008 183.306 525.276 182.876 526.367 183.369L610.556 221.375C611.133 221.637 611.573 222.13 611.783 222.728C611.982 223.325 611.919 223.986 611.626 224.542L574.668 292.386C574.249 293.141 573.473 293.57 572.666 293.57ZM493.729 248.393L571.733 288.265L606.457 224.52L526.419 188.391L493.729 248.393Z" fill="#B7B7D9"/>
<path d="M240.761 467.212C240.121 467.212 239.513 466.94 239.083 466.468L183.894 405.879C183.16 405.072 183.097 403.866 183.747 402.985L221.91 351.801C222.287 351.308 222.843 350.983 223.472 350.909C224.112 350.846 224.72 351.025 225.192 351.413L287.133 403.006C288.056 403.782 288.224 405.145 287.5 406.12L242.585 466.3C242.176 466.845 241.547 467.181 240.876 467.212H240.761ZM188.517 404.201L240.583 461.373L282.562 405.124L224.122 356.445L188.517 404.201Z" fill="#B7B7D9"/>
<path d="M329.596 343.874C329.187 343.874 328.779 343.769 328.401 343.539L259.928 301.392C259.414 301.067 259.037 300.553 258.9 299.955C258.775 299.358 258.879 298.729 259.215 298.215L294.327 244.021C294.925 243.099 296.13 242.742 297.147 243.172L371.806 275.778C372.415 276.051 372.876 276.575 373.075 277.215C373.264 277.854 373.169 278.546 372.802 279.102L331.505 342.836C331.075 343.507 330.341 343.874 329.596 343.874ZM264.3 298.739L328.894 338.496L367.529 278.882L297.095 248.121L264.3 298.739Z" fill="#B7B7D9"/>
<path d="M285.675 407.032C285.151 407.032 284.626 406.843 284.217 406.508L222.276 354.914C221.374 354.16 221.196 352.828 221.867 351.863L259.254 298.152C259.946 297.166 261.267 296.873 262.316 297.513L330.789 339.66C331.313 339.995 331.691 340.52 331.816 341.138C331.953 341.746 331.816 342.386 331.46 342.899L287.541 406.057C287.174 406.581 286.608 406.927 285.979 407.011C285.874 407.022 285.78 407.032 285.675 407.032ZM226.795 352.755L285.224 401.423L326.354 342.27L261.76 302.514L226.795 352.755Z" fill="#B7B7D9"/>
<path d="M255.83 589.188C255.18 589.188 254.561 588.904 254.121 588.422L194.884 521.364C194.15 520.526 194.129 519.288 194.821 518.429L238.992 463.511C239.39 463.019 239.977 462.715 240.617 462.673C241.068 462.505 241.864 462.851 242.336 463.291L306.438 524.258C307.287 525.076 307.381 526.407 306.637 527.33L257.601 588.338C257.182 588.863 256.553 589.167 255.882 589.188H255.83ZM199.571 519.781L255.746 583.379L301.783 526.114L240.984 468.293L199.571 519.781Z" fill="#B7B7D9"/>
<path d="M697.146 593.297C696.674 593.297 696.202 593.151 695.814 592.868L628.62 544.252C627.634 543.539 627.383 542.186 628.043 541.169L676.712 466.028C677.068 465.483 677.634 465.116 678.274 465.021C678.924 464.906 679.574 465.095 680.067 465.503L744.43 518.45C745.321 519.194 745.52 520.473 744.891 521.448L699.054 592.259C698.718 592.784 698.173 593.14 697.565 593.255C697.429 593.287 697.282 593.297 697.146 593.297ZM633.034 541.83L696.538 587.772L739.974 520.683L679.144 470.641L633.034 541.83Z" fill="#B7B7D9"/>
<path d="M648.322 663.459C647.902 663.459 647.483 663.344 647.105 663.113L576.892 618.858C576.367 618.523 576 617.988 575.875 617.38C575.759 616.772 575.885 616.143 576.242 615.629L628.087 541.106C628.433 540.603 628.967 540.267 629.576 540.163C630.163 540.047 630.792 540.205 631.284 540.561L698.479 589.177C699.485 589.911 699.726 591.305 699.013 592.322L650.188 662.484C649.747 663.113 649.045 663.459 648.322 663.459ZM581.337 616.279L647.693 658.101L694.002 591.557L630.498 545.604L581.337 616.279Z" fill="#B7B7D9"/>
<path d="M449.465 320.306C449.119 320.306 448.763 320.222 448.427 320.054L369.858 279.888C369.302 279.605 368.882 279.102 368.704 278.494C368.537 277.886 368.62 277.236 368.945 276.701L405.934 214.917C406.511 213.942 407.717 213.554 408.734 213.973L491.466 247.25C492.084 247.492 492.556 248.005 492.776 248.635C492.986 249.264 492.913 249.956 492.567 250.532L451.415 319.205C450.996 319.907 450.241 320.306 449.465 320.306ZM374.093 276.942L448.606 315.042L487.293 250.469L408.838 218.911L374.093 276.942Z" fill="#B7B7D9"/>
<path d="M396.758 707.902C396.276 707.902 395.794 707.745 395.374 707.43L322.047 651.444C321.565 651.077 321.25 650.521 321.177 649.913C321.103 649.305 321.271 648.697 321.659 648.215L373.745 583.432C374.521 582.467 375.873 582.31 376.87 583.023L451.204 637.741C451.696 638.108 452.021 638.663 452.105 639.282C452.189 639.9 452.011 640.519 451.623 641.001L398.53 707.053C398.079 707.608 397.419 707.902 396.758 707.902ZM326.66 649.252L396.37 702.471L446.591 640.005L375.926 587.982L326.66 649.252Z" fill="#B7B7D9"/>
<path d="M323.43 651.915C322.853 651.915 322.308 651.695 321.878 651.307L254.275 588.579C253.405 587.772 253.31 586.42 254.055 585.486L303.09 524.478C303.468 524.006 304.034 523.702 304.642 523.639C305.218 523.513 305.858 523.765 306.319 524.153L376.973 583.106C377.927 583.903 378.064 585.319 377.288 586.283L325.202 651.066C324.803 651.559 324.226 651.863 323.597 651.905C323.545 651.915 323.482 651.915 323.43 651.915ZM258.93 586.682L323.189 646.317L372.339 585.172L305.187 529.133L258.93 586.682Z" fill="#B7B7D9"/>
<path d="M678.62 469.54C678.138 469.54 677.677 469.393 677.278 469.1L605.01 416.416C604.066 415.724 603.794 414.423 604.402 413.417L648.929 339.093C649.264 338.538 649.809 338.15 650.449 338.024C651.057 337.898 651.739 338.045 652.252 338.443L723.682 392.553C724.605 393.256 724.857 394.545 724.259 395.541L680.571 468.439C680.246 468.984 679.7 469.362 679.071 469.498C678.924 469.529 678.767 469.54 678.62 469.54ZM609.371 413.962L677.949 463.962L719.31 394.944L651.529 343.602L609.371 413.962Z" fill="#B7B7D9"/>
<path d="M606.352 416.856C605.912 416.856 605.482 416.73 605.115 416.489L527.751 366.101C526.723 365.43 526.409 364.078 527.038 363.029L570.716 290.131C571.03 289.607 571.544 289.23 572.131 289.083C572.729 288.947 573.347 289.041 573.872 289.366L652.085 338.328C653.133 338.989 653.469 340.362 652.829 341.421L608.302 415.745C607.988 416.279 607.464 416.657 606.866 416.793C606.698 416.835 606.52 416.856 606.352 416.856ZM532.06 363.48L605.618 411.383L647.786 341.002L573.421 294.451L532.06 363.48Z" fill="#B7B7D9"/>
<path d="M528.987 366.468C528.6 366.468 528.201 366.374 527.845 366.164L448.321 320.002C447.797 319.687 447.409 319.184 447.262 318.597C447.105 318.01 447.199 317.381 447.513 316.856L488.665 248.184C489.262 247.167 490.562 246.779 491.653 247.335L573.703 289.272C574.259 289.555 574.678 290.058 574.857 290.666C575.024 291.275 574.94 291.925 574.615 292.459L530.938 365.368C530.508 366.07 529.763 366.468 528.987 366.468ZM452.598 317.223L528.191 361.1L569.468 292.218L491.474 252.346L452.598 317.223Z" fill="#B7B7D9"/>
<path d="M304.864 528.179C304.287 528.179 303.721 527.959 303.291 527.55L239.19 466.584C238.361 465.787 238.246 464.497 238.938 463.575L283.853 403.394C284.22 402.902 284.765 402.587 285.373 402.503C285.981 402.43 286.6 402.587 287.082 402.964L356.206 457.21C357.181 457.976 357.359 459.37 356.625 460.366L306.688 527.267C306.3 527.781 305.702 528.116 305.052 528.169C304.99 528.179 304.927 528.179 304.864 528.179ZM243.792 464.675L304.57 522.486L351.645 459.423L286.107 407.986L243.792 464.675Z" fill="#B7B7D9"/>
<path d="M403.624 391.096C403.205 391.096 402.775 390.981 402.398 390.74L328.368 343.518C327.864 343.193 327.498 342.679 327.372 342.082C327.246 341.495 327.361 340.876 327.686 340.362L368.984 276.628C369.613 275.653 370.871 275.307 371.93 275.842L450.5 316.007C451.066 316.301 451.496 316.825 451.664 317.443C451.821 318.062 451.716 318.723 451.37 319.268L405.533 390.058C405.103 390.729 404.369 391.096 403.624 391.096ZM332.75 340.918L402.943 385.686L446.181 318.911L371.689 280.822L332.75 340.918Z" fill="#B7B7D9"/>
<path d="M354.8 461.278C354.297 461.278 353.804 461.111 353.395 460.796L284.272 406.55C283.328 405.805 283.119 404.453 283.811 403.457L327.73 340.299C328.432 339.314 329.806 339.031 330.823 339.681L404.853 386.902C405.366 387.238 405.733 387.772 405.859 388.37C405.975 388.978 405.849 389.607 405.492 390.121L356.667 460.303C356.31 460.817 355.754 461.163 355.136 461.257C355.021 461.268 354.916 461.278 354.8 461.278ZM288.77 404.296L354.308 455.722L400.407 389.46L330.215 344.692L288.77 404.296Z" fill="#B7B7D9"/>
<path d="M525.119 690.204C524.699 690.204 524.27 690.089 523.892 689.848L448.625 641.494C448.09 641.148 447.723 640.603 447.618 639.984C447.503 639.366 447.65 638.726 448.027 638.212L502.043 565.807C502.777 564.822 504.129 564.612 505.136 565.283L579.375 615.042C579.889 615.388 580.245 615.933 580.35 616.541C580.455 617.16 580.298 617.789 579.931 618.292L526.943 689.292C526.492 689.89 525.811 690.204 525.119 690.204ZM453.133 638.978L524.563 684.868L574.857 617.485L504.402 570.263L453.133 638.978Z" fill="#B7B7D9"/>
<path d="M629.952 544.681C629.49 544.681 629.029 544.535 628.652 544.272L555.45 493.088C554.443 492.385 554.171 491.012 554.842 489.984L604.443 413.344C604.779 412.82 605.324 412.463 605.932 412.348C606.592 412.201 607.19 412.369 607.693 412.746L679.962 465.43C680.937 466.143 681.189 467.485 680.528 468.502L631.86 543.644C631.524 544.157 630.99 544.524 630.392 544.639C630.245 544.671 630.099 544.681 629.952 544.681ZM559.853 490.614L629.323 539.188L675.538 467.831L606.959 417.831L559.853 490.614Z" fill="#B7B7D9"/>
<path d="M578.106 619.204C577.665 619.204 577.225 619.079 576.837 618.817L502.597 569.058C502.094 568.722 501.748 568.188 501.633 567.59C501.518 566.992 501.654 566.374 502 565.871L554.883 489.922C555.229 489.429 555.753 489.093 556.351 488.978C556.959 488.894 557.567 489.02 558.049 489.356L631.251 540.54C632.278 541.264 632.53 542.679 631.817 543.707L579.972 618.229C579.532 618.858 578.819 619.204 578.106 619.204ZM507.053 566.573L577.519 613.795L626.785 542.973L557.315 494.388L507.053 566.573Z" fill="#B7B7D9"/>
<path d="M449.851 641.85C449.379 641.85 448.907 641.704 448.498 641.41L374.164 586.692C373.682 586.325 373.357 585.791 373.263 585.193C373.179 584.595 373.336 583.987 373.692 583.494L426.638 512.494C427.393 511.498 428.777 511.299 429.773 512.002L505.177 565.315C505.68 565.671 506.016 566.206 506.11 566.814C506.204 567.422 506.058 568.04 505.691 568.533L451.675 640.938C451.224 641.536 450.543 641.85 449.851 641.85ZM378.704 584.386L449.379 636.409L500.648 567.684L428.956 516.992L378.704 584.386Z" fill="#B7B7D9"/>
<path d="M375.518 587.133C374.983 587.133 374.469 586.944 374.06 586.608L303.406 527.655C302.484 526.879 302.316 525.516 303.039 524.541L352.976 457.64C353.742 456.634 355.157 456.424 356.163 457.179L429.827 512.033C430.309 512.39 430.623 512.935 430.718 513.532C430.802 514.13 430.644 514.738 430.288 515.22L377.342 586.22C376.964 586.713 376.409 587.038 375.78 587.112C375.696 587.122 375.601 587.133 375.518 587.133ZM307.977 525.537L375.13 581.576L425.276 514.319L355.262 462.18L307.977 525.537Z" fill="#B7B7D9"/>
<path d="M556.748 493.497C556.297 493.497 555.846 493.36 555.469 493.098L479.028 441.211C478.01 440.519 477.727 439.135 478.398 438.097L527.077 362.956C527.402 362.453 527.927 362.096 528.514 361.97C529.111 361.845 529.73 361.96 530.223 362.285L607.587 412.673C608.646 413.354 608.939 414.759 608.258 415.818L558.656 492.459C558.321 492.972 557.796 493.329 557.199 493.455C557.052 493.486 556.895 493.497 556.748 493.497ZM483.431 438.705L556.098 488.034L603.204 415.252L529.657 367.338L483.431 438.705Z" fill="#B7B7D9"/>
<path d="M503.868 569.446C503.396 569.446 502.945 569.299 502.557 569.026L427.154 515.713C426.126 514.99 425.885 513.585 426.598 512.557L478.443 438.035C479.156 437.018 480.572 436.745 481.589 437.458L558.03 489.345C558.533 489.681 558.879 490.205 558.984 490.813C559.1 491.41 558.963 492.018 558.617 492.522L505.734 568.471C505.388 568.963 504.854 569.309 504.256 569.414C504.13 569.435 503.994 569.446 503.868 569.446ZM431.62 513.302L503.312 563.994L553.574 491.809L480.897 442.48L431.62 513.302Z" fill="#B7B7D9"/>
<path d="M480.31 441.61C479.869 441.61 479.429 441.484 479.062 441.232L402.38 390.718C401.331 390.037 401.038 388.632 401.719 387.584L447.557 316.793C448.207 315.776 449.57 315.472 450.608 316.059L530.132 362.222C530.666 362.537 531.054 363.061 531.201 363.658C531.348 364.266 531.232 364.906 530.897 365.43L482.218 440.571C481.893 441.075 481.369 441.431 480.782 441.557C480.624 441.589 480.467 441.61 480.31 441.61ZM406.762 388.16L479.649 436.179L525.781 364.958L450.199 321.081L406.762 388.16Z" fill="#B7B7D9"/>
<path d="M428.463 516.132C427.98 516.132 427.498 515.975 427.1 515.682L353.437 460.827C352.462 460.094 352.231 458.71 352.933 457.703L401.759 387.521C402.462 386.514 403.866 386.242 404.873 386.923L481.556 437.437C482.069 437.772 482.426 438.307 482.541 438.905C482.657 439.502 482.52 440.131 482.174 440.635L430.329 515.157C429.983 515.661 429.438 516.007 428.83 516.101C428.704 516.122 428.589 516.132 428.463 516.132ZM357.924 458.489L427.939 510.628L477.11 439.953L404.223 391.945L357.924 458.489Z" fill="#B7B7D9"/>
</svg>
