<?xml version="1.0" encoding="UTF-8"?>
<!DOCTYPE svg PUBLIC "-//W3C//DTD SVG 1.1//EN" "http://www.w3.org/Graphics/SVG/1.1/DTD/svg11.dtd">
<svg xmlns="http://www.w3.org/2000/svg" version="1.1" width="180px" height="180px" style="shape-rendering:geometricPrecision; text-rendering:geometricPrecision; image-rendering:optimizeQuality; fill-rule:evenodd; clip-rule:evenodd" xmlns:xlink="http://www.w3.org/1999/xlink">
<g><path style="opacity:0.985" fill="#0d0c4f" d="M 74.5,-0.5 C 84.1667,-0.5 93.8333,-0.5 103.5,-0.5C 116.676,1.50502 129.01,6.00502 140.5,13C 142.903,16.0665 145.903,18.3998 149.5,20C 165.624,34.7446 175.624,52.9112 179.5,74.5C 179.5,84.1667 179.5,93.8333 179.5,103.5C 177.495,116.676 172.995,129.01 166,140.5C 162.933,142.903 160.6,145.903 159,149.5C 144.255,165.624 126.089,175.624 104.5,179.5C 94.8333,179.5 85.1667,179.5 75.5,179.5C 62.3237,177.495 49.9904,172.995 38.5,166C 36.0966,162.933 33.0966,160.6 29.5,159C 13.3758,144.255 3.37584,126.089 -0.5,104.5C -0.5,94.8333 -0.5,85.1667 -0.5,75.5C 1.50502,62.3237 6.00502,49.9904 13,38.5C 16.0665,36.0966 18.3998,33.0966 20,29.5C 34.7446,13.3758 52.9112,3.37584 74.5,-0.5 Z"/></g>
<g><path style="opacity:1" fill="#d7d7e1" d="M 135.5,42.5 C 123.987,40.7548 112.654,41.4215 101.5,44.5C 111.575,39.2973 122.242,38.1306 133.5,41C 134.416,41.2784 135.082,41.7784 135.5,42.5 Z"/></g>
<g><path style="opacity:1" fill="#f8f7f7" d="M 135.5,42.5 C 144.55,45.5423 151.55,51.209 156.5,59.5C 156.833,60.8333 157.167,62.1667 157.5,63.5C 148.849,62.5798 140.183,62.4132 131.5,63C 125.588,64.538 120.755,67.7047 117,72.5C 108.772,88.0609 98.2719,101.894 85.5,114C 79.4293,118.034 73.096,121.534 66.5,124.5C 58.5,125.833 50.5,125.833 42.5,124.5C 35.4824,122.479 29.4824,118.813 24.5,113.5C 22.5207,110.901 20.5207,108.235 18.5,105.5C 17.4229,103.271 16.7563,100.937 16.5,98.5C 19.2666,98.8583 21.9333,99.525 24.5,100.5C 31.0322,101.66 37.6988,101.493 44.5,100C 45.056,99.6174 45.3893,99.1174 45.5,98.5C 47.4261,97.5139 49.4261,96.5139 51.5,95.5C 54.1979,95.1551 56.1979,93.8218 57.5,91.5C 59.1667,89.1667 61.1667,87.1667 63.5,85.5C 65.5869,84.4154 66.9202,82.7488 67.5,80.5C 74.4634,69.3545 82.7967,59.1878 92.5,50C 95.4029,47.9143 98.4029,46.081 101.5,44.5C 112.654,41.4215 123.987,40.7548 135.5,42.5 Z"/></g>
<g><path style="opacity:1" fill="#555483" d="M 49.5,41.5 C 51.4484,43.3204 52.4484,45.6538 52.5,48.5C 50.9348,46.4907 49.9348,44.1573 49.5,41.5 Z"/></g>
<g><path style="opacity:1" fill="#ebebef" d="M 49.5,41.5 C 49.9348,44.1573 50.9348,46.4907 52.5,48.5C 52.427,50.0269 53.0937,51.0269 54.5,51.5C 57.0209,52.9913 59.3542,54.658 61.5,56.5C 58.5145,56.9028 55.8478,57.9028 53.5,59.5C 51.6174,61.7634 50.2841,64.4301 49.5,67.5C 49.0431,68.2975 48.3764,68.6309 47.5,68.5C 47.554,65.0076 46.554,62.0076 44.5,59.5C 32.6849,56.6159 32.6849,53.7826 44.5,51C 45.9014,47.5759 47.568,44.4092 49.5,41.5 Z"/></g>
<g><path style="opacity:1" fill="#7a799e" d="M 54.5,51.5 C 57.1123,52.3705 59.779,53.0372 62.5,53.5C 62.7373,54.791 62.404,55.791 61.5,56.5C 59.3542,54.658 57.0209,52.9913 54.5,51.5 Z"/></g>
<g><path style="opacity:1" fill="#6e688f" d="M 156.5,59.5 C 157.965,60.4057 158.965,61.739 159.5,63.5C 159.043,64.2975 158.376,64.6309 157.5,64.5C 157.5,64.1667 157.5,63.8333 157.5,63.5C 157.167,62.1667 156.833,60.8333 156.5,59.5 Z"/></g>
<g><path style="opacity:1" fill="#ea796c" d="M 157.5,63.5 C 157.5,63.8333 157.5,64.1667 157.5,64.5C 151.353,67.137 146.186,71.137 142,76.5C 134.278,86.5555 126.945,96.8889 120,107.5C 108.69,122.655 93.857,132.322 75.5,136.5C 66.0342,136.522 56.7009,135.522 47.5,133.5C 47.0269,132.094 46.0269,131.427 44.5,131.5C 41.91,130.872 39.5766,129.705 37.5,128C 35.461,125.626 33.1277,123.626 30.5,122C 28.2553,119.269 26.2553,116.436 24.5,113.5C 29.4824,118.813 35.4824,122.479 42.5,124.5C 42.9175,125.222 43.5842,125.722 44.5,126C 50.8333,126.667 57.1667,126.667 63.5,126C 64.7375,125.768 65.7375,125.268 66.5,124.5C 73.096,121.534 79.4293,118.034 85.5,114C 98.2719,101.894 108.772,88.0609 117,72.5C 120.755,67.7047 125.588,64.538 131.5,63C 140.183,62.4132 148.849,62.5798 157.5,63.5 Z"/></g>
<g><path style="opacity:1" fill="#4c497b" d="M 44.5,59.5 C 46.554,62.0076 47.554,65.0076 47.5,68.5C 45.883,65.8112 44.883,62.8112 44.5,59.5 Z"/></g>
<g><path style="opacity:1" fill="#3f3b71" d="M 53.5,59.5 C 52.7063,62.802 52.0396,66.1353 51.5,69.5C 49.901,69.7678 48.5676,69.4345 47.5,68.5C 48.3764,68.6309 49.0431,68.2975 49.5,67.5C 50.2841,64.4301 51.6174,61.7634 53.5,59.5 Z"/></g>
<g><path style="opacity:1" fill="#adacc2" d="M 67.5,80.5 C 66.9202,82.7488 65.5869,84.4154 63.5,85.5C 64.0798,83.2512 65.4131,81.5846 67.5,80.5 Z"/></g>
<g><path style="opacity:1" fill="#9796b3" d="M 57.5,91.5 C 56.1979,93.8218 54.1979,95.1551 51.5,95.5C 53.1475,93.6736 55.1475,92.3403 57.5,91.5 Z"/></g>
<g><path style="opacity:1" fill="#b5b5c8" d="M 45.5,98.5 C 45.3893,99.1174 45.056,99.6174 44.5,100C 37.6988,101.493 31.0322,101.66 24.5,100.5C 31.5893,100.659 38.5893,99.9927 45.5,98.5 Z"/></g>
<g><path style="opacity:1" fill="#6e3b5b" d="M 137.5,118.5 C 135.097,118.448 132.764,118.781 130.5,119.5C 131.312,118.007 132.645,117.34 134.5,117.5C 135.726,117.52 136.726,117.853 137.5,118.5 Z"/></g>
<g><path style="opacity:1" fill="#e5756a" d="M 137.5,118.5 C 146.908,123.18 147.908,129.347 140.5,137C 134.767,139.736 130.1,138.569 126.5,133.5C 126.307,129.434 126.64,125.434 127.5,121.5C 128.5,120.833 129.5,120.167 130.5,119.5C 132.764,118.781 135.097,118.448 137.5,118.5 Z"/></g>
<g><path style="opacity:1" fill="#f3b3ac" d="M 42.5,124.5 C 50.5,125.833 58.5,125.833 66.5,124.5C 65.7375,125.268 64.7375,125.768 63.5,126C 57.1667,126.667 50.8333,126.667 44.5,126C 43.5842,125.722 42.9175,125.222 42.5,124.5 Z"/></g>
<g><path style="opacity:1" fill="#a55662" d="M 127.5,121.5 C 126.64,125.434 126.307,129.434 126.5,133.5C 124.573,130.863 124.073,127.863 125,124.5C 125.377,123.058 126.21,122.058 127.5,121.5 Z"/></g>
<g><path style="opacity:1" fill="#7b415c" d="M 44.5,131.5 C 46.0269,131.427 47.0269,132.094 47.5,133.5C 45.9731,133.573 44.9731,132.906 44.5,131.5 Z"/></g>
<g><path style="opacity:1" fill="#b55e64" d="M 47.5,133.5 C 56.7009,135.522 66.0342,136.522 75.5,136.5C 70.0154,137.652 64.3487,137.818 58.5,137C 54.5086,136.502 50.842,135.335 47.5,133.5 Z"/></g>
</svg>
