<?xml version="1.0" encoding="UTF-8"?>
<!DOCTYPE svg PUBLIC "-//W3C//DTD SVG 1.1//EN" "http://www.w3.org/Graphics/SVG/1.1/DTD/svg11.dtd">
<svg xmlns="http://www.w3.org/2000/svg" version="1.1" width="180px" height="180px" style="shape-rendering:geometricPrecision; text-rendering:geometricPrecision; image-rendering:optimizeQuality; fill-rule:evenodd; clip-rule:evenodd" xmlns:xlink="http://www.w3.org/1999/xlink">
<g><path style="opacity:0.999" fill="#f60cbd" d="M 86.5,13.5 C 89.5455,13.3418 92.3788,14.0085 95,15.5C 105.056,39.5947 115.056,63.5947 125,87.5C 138.726,107.875 152.393,128.208 166,148.5C 166.458,151.181 167.291,153.681 168.5,156C 167.757,161.246 164.757,163.746 159.5,163.5C 136.095,160.546 112.762,157.879 89.5,155.5C 66.0857,157.365 42.7524,160.031 19.5,163.5C 14.0157,163.685 11.0157,161.018 10.5,155.5C 10.6667,154.5 10.8333,153.5 11,152.5C 25.0407,130.784 39.374,109.118 54,87.5C 62.4381,65.3532 71.4381,43.3532 81,21.5C 82.1171,18.2409 83.9505,15.5743 86.5,13.5 Z M 89.5,39.5 C 95.7203,53.9747 102.054,68.4747 108.5,83C 95.8202,83.8326 83.1535,83.666 70.5,82.5C 77.0354,68.2164 83.3687,53.8831 89.5,39.5 Z M 70.5,98.5 C 83.1667,98.5 95.8333,98.5 108.5,98.5C 103.159,110.89 96.8256,122.89 89.5,134.5C 82.249,122.934 75.9156,110.934 70.5,98.5 Z M 57.5,107.5 C 63.7609,118.042 69.7609,128.875 75.5,140C 74.7282,141.221 73.7282,142.221 72.5,143C 59.8333,144 47.1667,145 34.5,146C 33.5838,146.374 32.7504,146.874 32,147.5C 40.183,134.137 48.683,120.803 57.5,107.5 Z M 120.5,107.5 C 129.993,120.475 138.827,133.808 147,147.5C 145.933,146.809 144.766,146.309 143.5,146C 130.799,145.126 118.133,143.959 105.5,142.5C 104.833,141.833 104.167,141.167 103.5,140.5C 109.317,129.495 114.984,118.495 120.5,107.5 Z"/></g>
</svg>
