<svg width="41" height="37" viewBox="0 0 41 37" fill="none" xmlns="http://www.w3.org/2000/svg">
<g id="telegram 1" clip-path="url(#clip0_101_6)">
<path id="Vector" d="M41 18.5C41 23.4065 38.8402 28.1121 34.9957 31.5815C31.1512 35.0509 25.9369 37 20.5 37C15.0631 37 9.84881 35.0509 6.00431 31.5815C2.15982 28.1121 0 23.4065 0 18.5C0 13.5935 2.15982 8.88795 6.00431 5.41852C9.84881 1.9491 15.0631 0 20.5 0C25.9369 0 31.1512 1.9491 34.9957 5.41852C38.8402 8.88795 41 13.5935 41 18.5ZM21.2354 13.6576C19.2418 14.4069 15.2546 15.9562 9.27881 18.3057C8.31019 18.6526 7.80025 18.9949 7.75413 19.3279C7.67725 19.8898 8.45881 20.1118 9.52225 20.4148L9.97069 20.5419C11.0162 20.8495 12.4256 21.2079 13.1559 21.2218C13.8221 21.2357 14.5627 20.9906 15.3801 20.4818C20.9638 17.0801 23.8466 15.3619 24.026 15.3249C24.1541 15.2972 24.3335 15.2648 24.4514 15.3619C24.5718 15.4568 24.559 15.6394 24.5462 15.688C24.4693 15.9863 21.402 18.5578 19.8158 19.8898C19.3212 20.3061 18.9702 20.5998 18.8984 20.6668C18.7404 20.8125 18.5798 20.9559 18.4167 21.0969C17.4429 21.9433 16.7152 22.5769 18.4551 23.6129C19.2931 24.1124 19.9644 24.5217 20.6333 24.9334C21.361 25.382 22.0887 25.8283 23.0317 26.3879C23.2701 26.5267 23.5007 26.677 23.7236 26.8204C24.5718 27.3661 25.338 27.8564 26.2784 27.7778C26.8268 27.7315 27.3931 27.269 27.6801 25.8815C28.3592 22.6047 29.6943 15.5076 30.0018 12.5823C30.0205 12.3391 30.0093 12.0948 29.9684 11.8539C29.9443 11.6594 29.84 11.4803 29.6763 11.3521C29.4431 11.2068 29.1652 11.1316 28.8819 11.137C28.1132 11.1486 26.9267 11.5209 21.2354 13.6576Z" fill="white"/>
</g>
<defs>
<clipPath id="clip0_101_6">
<rect width="41" height="37" fill="white"/>
</clipPath>
</defs>
</svg>
