<?xml version="1.0" encoding="UTF-8"?>
<!DOCTYPE svg PUBLIC "-//W3C//DTD SVG 1.1//EN" "http://www.w3.org/Graphics/SVG/1.1/DTD/svg11.dtd">
<svg xmlns="http://www.w3.org/2000/svg" version="1.1" width="180px" height="180px" style="shape-rendering:geometricPrecision; text-rendering:geometricPrecision; image-rendering:optimizeQuality; fill-rule:evenodd; clip-rule:evenodd" xmlns:xlink="http://www.w3.org/1999/xlink">
<g><path style="opacity:1" fill="#783ddf" d="M 83.5,9.5 C 88.5988,9.17463 93.5988,9.67463 98.5,11C 116.361,20.7608 134.028,30.7608 151.5,41C 156.574,44.9791 159.741,50.1457 161,56.5C 161.667,77.8333 161.667,99.1667 161,120.5C 159.161,129.006 154.328,135.173 146.5,139C 130.5,148 114.5,157 98.5,166C 92.5,168 86.5,168 80.5,166C 63.8134,156.634 47.1467,147.3 30.5,138C 24.0343,134.206 19.8677,128.706 18,121.5C 17.3333,99.5 17.3333,77.5 18,55.5C 19.4826,49.0087 22.9826,43.8421 28.5,40C 46.8048,29.4694 65.1382,19.3028 83.5,9.5 Z M 87.5,22.5 C 91.7814,23.1361 95.7814,24.6361 99.5,27C 114.631,35.4003 129.631,44.067 144.5,53C 148.74,61.038 148.407,68.8713 143.5,76.5C 141.641,78.1924 139.641,79.6924 137.5,81C 106.167,81.3333 74.8333,81.6667 43.5,82C 39.6066,82.4645 35.9399,83.6312 32.5,85.5C 31.3345,75.8505 31.1679,66.1839 32,56.5C 32.9147,55.6721 33.5814,54.6721 34,53.5C 51.7633,42.8715 69.5967,32.5382 87.5,22.5 Z M 146.5,90.5 C 147.658,99.9911 147.825,109.658 147,119.5C 146,121.167 145,122.833 144,124.5C 126.776,134.701 109.276,144.534 91.5,154C 90.1667,154.667 88.8333,154.667 87.5,154C 69.9115,144.734 52.5782,135.068 35.5,125C 30.3377,117.019 30.171,108.853 35,100.5C 36.7309,98.3834 38.8976,96.8834 41.5,96C 74.1814,95.8599 106.848,95.1933 139.5,94C 142.281,93.4782 144.615,92.3115 146.5,90.5 Z"/></g>
<g><path style="opacity:1" fill="#783cdf" d="M 59.5,45.5 C 82.5427,41.8796 91.5427,51.5463 86.5,74.5C 82.1667,74.5 77.8333,74.5 73.5,74.5C 72.6576,69.213 72.3243,63.8797 72.5,58.5C 69.8333,58.5 67.1667,58.5 64.5,58.5C 64.5,63.8333 64.5,69.1667 64.5,74.5C 59.9014,74.8 55.4014,74.4667 51,73.5C 49.7525,65.175 50.7525,57.175 54,49.5C 55.8121,48.0229 57.6455,46.6896 59.5,45.5 Z"/></g>
<g><path style="opacity:1" fill="#793de0" d="M 104.5,45.5 C 110.509,45.3338 116.509,45.5005 122.5,46C 126.333,47.1667 128.833,49.6667 130,53.5C 130.5,60.4921 130.666,67.4921 130.5,74.5C 126.167,74.5 121.833,74.5 117.5,74.5C 117.5,69.1667 117.5,63.8333 117.5,58.5C 114.5,58.5 111.5,58.5 108.5,58.5C 108.5,63.8333 108.5,69.1667 108.5,74.5C 104.167,74.5 99.8333,74.5 95.5,74.5C 95.3337,67.4921 95.5004,60.4921 96,53.5C 97.773,49.5596 100.606,46.893 104.5,45.5 Z"/></g>
<g><path style="opacity:0.998" fill="#773bde" d="M 51.5,101.5 C 55.7675,101.203 59.9341,101.536 64,102.5C 64.4993,107.489 64.6659,112.489 64.5,117.5C 67.1667,117.833 69.8333,118.167 72.5,118.5C 73.1342,112.855 73.4676,107.189 73.5,101.5C 77.8333,101.5 82.1667,101.5 86.5,101.5C 91.2391,127.934 80.9057,137.101 55.5,129C 54.2125,127.59 53.0458,126.09 52,124.5C 50.3707,116.804 50.204,109.137 51.5,101.5 Z"/></g>
<g><path style="opacity:1" fill="#793cdf" d="M 95.5,101.5 C 99.5546,101.176 103.555,101.509 107.5,102.5C 108.448,107.435 108.781,112.435 108.5,117.5C 111.5,117.5 114.5,117.5 117.5,117.5C 117.334,112.489 117.501,107.489 118,102.5C 122.066,101.536 126.233,101.203 130.5,101.5C 135.982,126.853 126.316,136.353 101.5,130C 100,128.5 98.5,127 97,125.5C 95.5648,117.611 95.0648,109.611 95.5,101.5 Z"/></g>
</svg>
