<?xml version="1.0" encoding="UTF-8"?>
<!DOCTYPE svg PUBLIC "-//W3C//DTD SVG 1.1//EN" "http://www.w3.org/Graphics/SVG/1.1/DTD/svg11.dtd">
<svg xmlns="http://www.w3.org/2000/svg" version="1.1" width="180px" height="180px" style="shape-rendering:geometricPrecision; text-rendering:geometricPrecision; image-rendering:optimizeQuality; fill-rule:evenodd; clip-rule:evenodd" xmlns:xlink="http://www.w3.org/1999/xlink">
<g><path style="opacity:1" fill="#898bf7" d="M 53.5,48.5 C 54.4959,48.4142 55.3292,48.7476 56,49.5C 56.4996,56.1583 56.6663,62.825 56.5,69.5C 70.504,69.3334 84.504,69.5001 98.5,70C 98.9574,70.414 99.2907,70.914 99.5,71.5C 85.1968,81.3027 71.0301,91.3027 57,101.5C 56.8197,111.077 56.3197,120.577 55.5,130C 54.5,130.667 53.5,130.667 52.5,130C 38.0832,116.482 23.7498,102.982 9.5,89.5C 24.1158,75.8446 38.7825,62.1779 53.5,48.5 Z"/></g>
<g><path style="opacity:1" fill="#4b4f96" d="M 123.5,48.5 C 124.552,48.3505 125.552,48.5172 126.5,49C 141.17,62.4669 155.503,76.1336 169.5,90C 155.584,103.576 141.251,116.909 126.5,130C 125.552,130.483 124.552,130.649 123.5,130.5C 123.5,123.5 123.5,116.5 123.5,109.5C 108.833,109.5 94.1667,109.5 79.5,109.5C 79.281,108.325 79.6143,107.325 80.5,106.5C 94.9605,97.1925 109.127,87.5258 123,77.5C 122.616,67.7663 122.783,58.0997 123.5,48.5 Z"/></g>
</svg>
